{"glyphs":{"0":{"ha":694,"x_min":65,"x_max":629,"o":"m 628 541 q 629 526 628 541 q 629 449 629 511 q 628 356 629 386 q 626 276 628 326 q 619 200 624 225 q 604 138 614 175 q 581 82 594 100 q 546 41 567 64 q 497 8 525 18 q 431 -9 468 -1 q 347 -17 393 -17 q 264 -9 301 -17 q 198 8 226 -1 q 149 41 169 18 q 114 82 128 64 q 90 138 100 100 q 76 200 81 175 q 69 276 71 225 q 66 356 67 326 q 65 449 65 386 q 66 541 65 511 q 69 622 67 571 q 76 697 71 672 q 90 760 81 722 q 114 815 100 797 q 149 856 128 833 q 198 889 169 879 q 264 906 226 899 q 347 914 301 914 q 431 906 393 914 q 497 889 468 899 q 546 856 525 879 q 581 815 567 833 q 604 760 594 797 q 619 697 614 722 q 626 622 624 672 q 628 541 628 571 m 507 231 l 507 667 q 472 786 507 763 q 363 815 428 815 q 268 806 299 815 q 222 786 238 797 q 197 751 206 775 q 188 667 188 719 l 188 231 q 222 111 188 135 q 331 82 267 82 q 426 91 396 82 q 473 111 457 100 q 497 146 489 122 q 507 231 507 178 z "},"1":{"ha":694,"x_min":117,"x_max":604,"o":"m 451 914 l 451 97 l 604 97 l 604 0 l 171 0 l 171 97 l 332 97 l 332 772 l 151 703 l 117 792 l 428 914 l 451 914 z "},"2":{"ha":694,"x_min":83,"x_max":606,"o":"m 339 914 q 401 914 339 914 q 535 853 464 914 q 606 669 606 793 q 493 415 606 544 l 218 97 l 606 97 l 606 0 l 83 0 l 83 106 l 401 474 q 465 570 446 525 q 483 685 483 615 q 449 785 483 754 q 328 815 415 815 q 122 779 240 815 l 96 868 q 339 914 214 914 z "},"3":{"ha":694,"x_min":81,"x_max":607,"o":"m 82 868 q 325 914 193 914 q 517 849 457 914 q 578 679 578 783 q 457 471 578 526 l 457 464 q 572 389 536 439 q 607 251 607 339 q 315 -14 607 -14 q 81 29 181 -14 l 114 115 q 305 88 235 88 q 412 98 375 88 q 463 131 449 108 q 481 172 478 154 q 483 223 483 189 q 481 278 483 257 q 468 331 478 300 q 367 396 449 390 l 196 408 l 196 494 l 349 507 q 442 574 425 513 q 456 665 456 618 q 451 731 456 711 q 433 772 447 751 q 318 815 408 815 q 108 779 228 815 l 82 868 z "},"4":{"ha":694,"x_min":42,"x_max":651,"o":"m 550 611 l 550 317 l 651 317 l 651 219 l 550 219 l 550 0 l 439 0 l 439 219 l 42 219 l 42 307 l 240 903 l 351 903 l 156 317 l 439 317 l 439 492 l 474 611 l 550 611 z "},"5":{"ha":694,"x_min":83,"x_max":610,"o":"m 610 256 q 600 160 610 203 q 563 75 590 117 q 326 -14 504 -14 q 83 29 188 -14 l 117 115 q 310 88 238 88 q 418 99 383 88 q 467 135 453 110 q 483 179 481 161 q 486 230 486 197 q 485 278 486 263 q 478 321 485 294 q 461 361 472 347 q 368 404 431 399 l 172 419 l 119 472 l 119 903 l 563 903 l 563 806 l 231 806 l 231 513 l 375 501 q 568 417 518 490 q 610 256 610 353 z "},"6":{"ha":694,"x_min":74,"x_max":619,"o":"m 558 779 q 354 815 440 815 q 233 786 268 815 q 197 693 197 757 l 197 501 q 353 533 261 533 q 499 513 444 533 q 578 453 553 493 q 611 371 603 413 q 619 267 619 329 q 610 161 619 206 q 574 72 600 117 q 351 -17 519 -17 q 234 -5 282 -17 q 156 43 186 7 q 108 110 125 79 q 83 218 92 142 q 74 535 74 322 q 131 831 74 747 q 351 914 189 914 q 585 868 467 914 l 558 779 m 497 181 l 497 329 q 435 426 497 403 q 336 439 401 439 q 197 419 271 439 l 197 181 q 350 82 197 82 q 481 122 456 82 q 497 181 497 149 z "},"7":{"ha":694,"x_min":94,"x_max":569,"o":"m 94 806 l 94 903 l 569 903 l 569 806 q 555 588 569 675 q 489 399 540 501 l 289 0 l 167 0 l 375 408 q 442 595 426 508 q 458 806 458 682 l 94 806 z "},"8":{"ha":694,"x_min":71,"x_max":622,"o":"m 106 399 q 153 433 124 421 q 95 497 114 456 q 74 572 76 539 q 71 663 71 604 q 81 760 71 721 q 119 836 92 799 q 350 914 174 914 q 622 696 622 914 q 546 451 622 494 q 614 349 600 418 q 622 243 622 299 q 619 160 622 188 q 601 95 617 132 q 558 36 586 58 q 340 -17 489 -17 q 131 48 190 -17 q 71 234 71 113 q 106 399 71 356 m 193 726 l 193 588 q 290 507 193 525 l 500 468 l 500 726 q 350 815 500 815 q 206 765 238 815 q 193 726 193 747 m 500 171 l 500 304 q 403 385 500 367 l 193 424 l 193 171 q 275 89 193 110 q 350 82 307 82 q 500 171 500 82 z "},"9":{"ha":694,"x_min":85,"x_max":631,"o":"m 346 83 q 507 200 507 83 l 507 381 q 349 350 431 350 q 213 367 268 350 q 130 424 157 385 q 94 509 103 464 q 85 622 85 554 q 94 735 85 690 q 131 825 104 781 q 360 914 185 914 q 544 861 490 914 q 591 799 574 832 q 617 706 608 765 q 631 501 631 618 q 630 344 631 383 q 626 253 629 306 q 614 172 622 201 q 592 107 606 143 q 559 52 579 71 q 510 15 539 33 q 369 -17 458 -17 q 210 -3 281 -17 q 106 26 139 11 l 132 115 q 346 83 268 83 m 207 701 l 207 551 q 271 456 207 479 q 363 444 304 444 q 507 464 422 444 l 507 701 q 438 806 507 785 q 349 815 401 815 q 265 805 296 815 q 224 772 235 794 q 207 701 207 740 z "}," ":{"ha":347,"x_min":0,"x_max":0,"o":""},"!":{"ha":408,"x_min":125,"x_max":283,"o":"m 170 136 q 175 137 170 136 q 204 138 181 138 q 238 136 228 138 q 261 128 249 135 q 278 105 274 121 q 283 61 283 89 q 278 17 283 33 q 261 -7 274 0 q 238 -15 249 -14 q 204 -17 228 -17 q 170 -15 181 -17 q 147 -7 160 -14 q 130 17 135 0 q 125 61 125 33 q 130 105 125 89 q 147 128 135 121 q 170 136 160 135 m 250 249 l 158 249 l 142 967 l 267 967 l 250 249 z "},"\"":{"ha":460,"x_min":63,"x_max":397,"o":"m 160 676 l 83 676 l 63 972 l 182 972 l 160 676 m 375 676 l 299 676 l 278 972 l 397 972 l 375 676 z "},"#":{"ha":824,"x_min":56,"x_max":768,"o":"m 106 538 l 122 628 l 232 628 l 281 897 l 378 897 l 329 628 l 558 628 l 607 897 l 704 897 l 656 628 l 768 628 l 750 538 l 640 538 l 606 343 l 718 343 l 700 253 l 589 253 l 544 0 l 447 0 l 492 253 l 263 253 l 218 0 l 121 0 l 165 253 l 56 253 l 72 343 l 182 343 l 217 538 l 106 538 m 314 538 l 279 343 l 508 343 l 543 538 l 314 538 z "},"$":{"ha":694,"x_min":83,"x_max":611,"o":"m 300 -139 l 300 -15 q 83 35 175 -6 l 108 121 q 318 82 219 82 q 456 118 417 82 q 494 228 494 154 q 474 339 494 303 q 386 390 453 375 l 249 422 q 118 501 150 446 q 86 667 86 556 q 301 910 86 883 l 301 1042 l 389 1042 l 389 911 q 579 868 478 904 l 554 785 q 363 814 450 814 q 237 786 276 814 q 197 676 197 758 q 217 563 197 594 q 300 515 236 531 l 432 483 q 569 411 526 461 q 611 248 611 361 q 556 65 611 135 q 389 -15 501 -4 l 389 -139 l 300 -139 z "},"%":{"ha":1008,"x_min":71,"x_max":936,"o":"m 414 0 l 351 0 l 594 897 l 657 897 l 414 0 m 391 723 q 391 713 391 723 q 392 660 392 703 q 391 597 392 617 q 388 544 390 576 q 379 496 385 511 q 362 460 374 481 q 333 431 350 440 q 238 410 292 410 q 153 422 183 410 q 106 451 122 435 q 81 507 89 468 q 71 631 71 560 q 72 723 71 703 q 75 776 72 743 q 83 824 78 808 q 101 859 89 839 q 129 888 113 879 q 172 903 146 896 q 231 910 197 910 q 290 903 264 910 q 333 888 315 896 q 362 859 350 879 q 379 824 374 839 q 388 776 385 808 q 391 723 390 743 m 306 547 l 306 771 q 274 833 306 824 q 230 838 257 838 q 188 833 203 838 q 167 817 172 828 q 157 771 157 800 l 157 547 q 189 486 157 496 q 233 482 206 482 q 275 487 260 482 q 297 503 290 492 q 306 547 306 519 m 935 305 q 936 295 935 305 q 936 242 936 285 q 935 178 936 199 q 932 126 935 158 q 924 78 929 93 q 906 42 918 63 q 878 14 894 22 q 782 -8 836 -8 q 697 4 728 -8 q 650 33 667 17 q 625 89 633 50 q 615 213 615 142 q 616 305 615 285 q 619 358 617 325 q 628 406 622 390 q 645 441 633 421 q 674 469 657 461 q 716 485 690 478 q 775 492 742 492 q 834 485 808 492 q 877 469 860 478 q 906 441 894 461 q 924 406 918 421 q 932 358 929 390 q 935 305 935 325 m 850 129 l 850 353 q 818 414 850 406 q 774 419 801 419 q 732 415 747 419 q 711 399 717 410 q 701 353 701 382 l 701 129 q 733 69 701 78 q 777 64 750 64 q 819 69 804 64 q 842 85 835 74 q 850 129 850 101 z "},"&":{"ha":706,"x_min":56,"x_max":782,"o":"m 300 -17 q 75 103 115 -17 q 56 240 56 158 q 150 460 56 406 l 229 504 l 199 543 q 143 638 158 593 q 128 738 128 682 q 136 826 128 793 q 168 892 144 860 q 244 942 192 925 q 374 960 296 960 q 501 942 451 960 q 575 892 551 925 q 606 827 599 860 q 614 726 614 794 q 597 622 614 657 q 506 544 579 586 l 394 481 l 782 0 l 647 -18 l 564 86 q 300 -17 510 -17 m 308 82 q 497 169 476 82 l 294 422 l 247 396 q 186 349 201 371 q 171 297 171 326 l 171 171 q 188 126 171 149 q 308 82 221 82 m 243 785 l 243 710 q 283 619 243 671 l 329 563 l 444 629 q 488 665 478 649 q 499 708 499 681 l 499 785 q 483 824 499 804 q 439 852 467 843 q 371 861 411 861 q 303 852 331 861 q 264 829 275 843 q 243 785 243 806 z "},"'":{"ha":244,"x_min":63,"x_max":182,"o":"m 160 676 l 83 676 l 63 972 l 182 972 l 160 676 z "},"(":{"ha":472,"x_min":110,"x_max":410,"o":"m 231 776 l 231 193 q 236 90 231 131 q 260 11 242 49 q 410 -65 296 -65 l 403 -156 q 218 -114 296 -156 q 166 -50 186 -96 q 134 33 146 -4 q 117 153 122 69 q 111 299 113 238 q 110 485 110 360 q 111 671 110 610 q 117 816 113 732 q 134 937 122 900 q 166 1019 146 974 q 218 1083 186 1065 q 403 1125 296 1125 l 410 1035 q 260 958 296 1035 q 236 880 242 921 q 231 776 231 839 z "},")":{"ha":472,"x_min":63,"x_max":363,"o":"m 242 193 l 242 776 q 236 880 242 839 q 213 958 231 921 q 63 1035 176 1035 l 69 1125 q 254 1083 176 1125 q 306 1019 286 1065 q 338 937 326 974 q 355 816 350 900 q 361 671 360 732 q 363 485 363 610 q 361 299 363 360 q 355 153 360 238 q 338 33 350 69 q 306 -50 326 -4 q 254 -114 286 -96 q 69 -156 176 -156 l 63 -65 q 213 11 176 -65 q 236 90 231 49 q 242 193 242 131 z "},"*":{"ha":565,"x_min":56,"x_max":510,"o":"m 326 1033 l 326 869 l 481 921 l 510 840 l 354 788 l 450 657 l 381 604 l 282 735 q 227 655 254 692 q 190 604 200 618 l 117 653 l 210 788 l 56 839 l 85 921 l 240 869 l 240 1033 l 326 1033 z "},"+":{"ha":694,"x_min":83,"x_max":611,"o":"m 83 392 l 83 489 l 299 489 l 299 704 l 396 704 l 396 489 l 611 489 l 611 392 l 396 392 l 396 176 l 299 176 l 299 392 l 83 392 z "},",":{"ha":333,"x_min":64,"x_max":247,"o":"m 160 138 q 176 138 160 138 q 202 136 192 138 q 225 128 213 135 q 247 61 247 115 q 201 -71 247 3 l 126 -189 l 64 -156 l 121 -12 q 89 61 89 -1 q 111 128 89 115 q 160 138 129 138 z "},"-":{"ha":546,"x_min":56,"x_max":490,"o":"m 56 371 l 56 461 l 490 461 l 490 371 l 56 371 z "},".":{"ha":333,"x_min":89,"x_max":247,"o":"m 134 136 q 139 137 134 136 q 168 138 144 138 q 202 136 192 138 q 225 128 213 135 q 242 105 238 121 q 247 61 247 89 q 242 17 247 33 q 225 -7 238 0 q 202 -15 213 -14 q 168 -17 192 -17 q 134 -15 144 -17 q 111 -7 124 -14 q 94 17 99 0 q 89 61 89 33 q 94 105 89 89 q 111 128 99 121 q 134 136 124 135 z "},"/":{"ha":489,"x_min":0,"x_max":489,"o":"m 383 972 l 489 972 l 106 0 l 0 0 l 383 972 z "},":":{"ha":333,"x_min":89,"x_max":247,"o":"m 134 136 q 139 137 134 136 q 168 138 144 138 q 202 136 192 138 q 225 128 213 135 q 242 105 238 121 q 247 61 247 89 q 242 17 247 33 q 225 -7 238 0 q 202 -15 213 -14 q 168 -17 192 -17 q 134 -15 144 -17 q 111 -7 124 -14 q 94 17 99 0 q 89 61 89 33 q 94 105 89 89 q 111 128 99 121 q 134 136 124 135 m 134 622 q 139 623 134 622 q 168 624 144 624 q 202 622 192 624 q 225 614 213 621 q 242 591 238 607 q 247 547 247 575 q 242 503 247 519 q 225 479 238 486 q 202 471 213 472 q 168 469 192 469 q 134 471 144 469 q 111 479 124 472 q 94 503 99 486 q 89 547 89 519 q 94 591 89 575 q 111 614 99 607 q 134 622 124 621 z "},";":{"ha":333,"x_min":64,"x_max":247,"o":"m 160 138 q 176 138 160 138 q 202 136 192 138 q 225 128 213 135 q 247 61 247 115 q 201 -71 247 3 l 126 -189 l 64 -156 l 121 -12 q 89 61 89 -1 q 111 128 89 115 q 160 138 129 138 m 134 622 q 139 623 134 622 q 168 624 144 624 q 202 622 192 624 q 225 614 213 621 q 242 591 238 607 q 247 547 247 575 q 242 503 247 519 q 225 479 238 486 q 202 471 213 472 q 168 469 192 469 q 134 471 144 469 q 111 479 124 472 q 94 503 99 486 q 89 547 89 519 q 94 591 89 575 q 111 614 99 607 q 134 622 124 621 z "},"<":{"ha":694,"x_min":83,"x_max":611,"o":"m 83 392 l 83 489 l 611 711 l 611 614 l 190 440 l 611 267 l 611 169 l 83 392 z "},"=":{"ha":694,"x_min":83,"x_max":611,"o":"m 83 531 l 83 628 l 611 628 l 611 531 l 83 531 m 83 253 l 83 350 l 611 350 l 611 253 l 83 253 z "},">":{"ha":694,"x_min":83,"x_max":611,"o":"m 611 489 l 611 392 l 83 169 l 83 267 l 503 440 l 83 614 l 83 711 l 611 489 z "},"?":{"ha":501,"x_min":28,"x_max":460,"o":"m 342 758 q 342 795 342 758 q 317 861 342 832 q 214 890 292 890 q 49 869 136 890 l 28 960 q 207 989 121 989 q 401 930 343 989 q 460 741 460 871 q 351 488 460 611 l 278 403 q 229 332 238 356 q 221 249 221 308 l 128 249 q 138 377 128 340 q 188 461 147 414 l 261 546 q 324 640 306 596 q 342 758 342 685 m 145 136 q 150 137 145 136 q 179 138 156 138 q 213 136 203 138 q 236 128 224 135 q 253 105 249 121 q 258 61 258 89 q 253 17 258 33 q 236 -7 249 0 q 213 -15 224 -14 q 179 -17 203 -17 q 145 -15 156 -17 q 122 -7 135 -14 q 105 17 110 0 q 100 61 100 33 q 105 105 100 89 q 122 128 110 121 q 145 136 135 135 z "},"@":{"ha":983,"x_min":97,"x_max":900,"o":"m 878 135 q 747 100 833 117 q 592 83 661 83 q 485 101 524 83 q 428 156 446 119 q 396 313 396 214 q 469 475 396 438 q 520 497 497 489 q 590 510 543 506 q 669 515 636 514 q 764 517 701 515 l 764 640 q 719 733 764 703 q 589 761 688 757 q 503 763 554 763 q 428 762 453 763 q 374 757 404 761 q 327 744 344 753 q 290 723 310 736 q 259 689 269 710 q 239 639 249 668 q 221 482 221 586 l 221 218 q 235 73 221 114 q 259 11 249 32 q 290 -23 269 -10 q 327 -44 310 -36 q 375 -57 344 -53 q 492 -62 414 -62 q 872 8 660 -62 l 900 -69 q 492 -161 686 -161 q 242 -114 308 -161 q 136 36 167 -60 q 97 350 97 156 q 183 756 97 649 q 241 813 213 793 q 315 844 269 833 q 474 861 383 861 q 619 856 565 861 q 724 837 672 851 q 808 797 776 822 q 878 625 878 742 l 878 135 m 764 438 q 595 427 622 438 q 547 406 568 417 q 510 329 510 386 l 510 297 q 531 201 510 229 q 620 174 551 174 q 764 188 689 174 l 764 438 z "},"A":{"ha":761,"x_min":49,"x_max":713,"o":"m 171 0 l 49 0 l 279 972 l 482 972 l 713 0 l 590 0 l 533 246 l 228 246 l 171 0 m 510 343 l 385 883 l 376 883 l 250 343 l 510 343 z "},"B":{"ha":761,"x_min":125,"x_max":657,"o":"m 125 972 l 356 972 q 568 909 507 972 q 629 690 629 846 q 532 488 629 535 q 627 413 597 464 q 657 271 657 363 q 591 63 657 126 q 363 0 525 0 l 125 0 l 125 972 m 536 244 l 536 299 q 514 404 536 385 q 436 440 476 435 q 350 444 396 444 l 244 444 l 244 99 l 364 99 q 500 125 457 99 q 535 194 531 143 q 536 244 536 211 m 508 671 l 508 725 q 475 847 508 825 q 354 874 438 874 l 244 874 l 244 524 l 340 524 q 472 550 431 524 q 507 622 503 568 q 508 671 508 638 z "},"C":{"ha":665,"x_min":104,"x_max":610,"o":"m 217 955 q 234 961 217 955 q 299 978 251 968 q 428 989 346 989 q 592 964 511 989 l 571 874 q 434 890 501 890 q 333 885 367 890 q 280 865 300 879 q 248 839 260 851 q 231 800 236 826 q 225 704 225 767 l 225 268 q 247 133 225 157 q 325 89 283 96 q 432 82 367 82 q 583 104 497 82 l 610 22 q 411 -17 517 -17 q 272 -3 311 -17 q 211 21 233 11 q 172 54 189 31 q 143 94 154 78 q 124 149 132 111 q 113 212 117 186 q 107 292 108 238 q 104 490 104 397 q 106 631 104 583 q 112 744 107 678 q 129 840 117 811 q 163 905 142 868 q 217 955 183 942 z "},"D":{"ha":815,"x_min":125,"x_max":711,"o":"m 125 972 l 403 972 q 597 942 515 972 q 653 895 632 929 q 686 833 674 861 q 703 742 699 806 q 711 494 711 639 q 708 289 711 349 q 691 158 706 229 q 643 61 676 86 q 403 0 561 0 l 125 0 l 125 972 m 404 872 l 244 872 l 244 103 l 404 103 q 550 135 500 103 q 589 222 585 157 q 590 285 590 243 l 590 690 q 589 752 590 732 q 578 800 588 772 q 550 840 569 828 q 404 872 500 872 z "},"E":{"ha":657,"x_min":125,"x_max":601,"o":"m 125 0 l 125 972 l 588 972 l 574 875 l 244 875 l 244 536 l 546 536 l 546 439 l 244 439 l 244 97 l 601 97 l 601 0 l 125 0 z "},"F":{"ha":601,"x_min":125,"x_max":574,"o":"m 125 972 l 574 972 l 560 875 l 244 875 l 244 536 l 532 536 l 532 439 l 244 439 l 244 0 l 125 0 l 125 972 z "},"G":{"ha":767,"x_min":104,"x_max":656,"o":"m 656 36 q 543 -1 615 14 q 418 -17 471 -17 q 328 -13 365 -17 q 263 1 292 -10 q 211 21 233 11 q 172 54 189 31 q 143 94 154 78 q 124 149 132 111 q 113 212 117 186 q 107 292 108 238 q 104 490 104 397 q 106 631 104 583 q 112 744 107 678 q 129 840 117 811 q 163 905 142 868 q 217 956 183 942 q 412 989 306 989 q 619 958 518 989 l 599 868 q 432 890 506 890 q 322 881 358 890 q 265 858 285 871 q 237 818 246 846 q 226 770 228 790 q 225 708 225 750 l 225 268 q 247 133 225 157 q 325 89 283 96 q 425 82 367 82 q 544 94 483 82 l 544 410 l 413 410 l 413 493 l 656 493 l 656 36 z "},"H":{"ha":822,"x_min":125,"x_max":697,"o":"m 578 972 l 697 972 l 697 0 l 578 0 l 578 439 l 244 439 l 244 0 l 125 0 l 125 972 l 244 972 l 244 536 l 578 536 l 578 972 z "},"I":{"ha":369,"x_min":125,"x_max":244,"o":"m 125 972 l 244 972 l 244 0 l 125 0 l 125 972 z "},"J":{"ha":376,"x_min":36,"x_max":258,"o":"m 258 972 l 258 218 q 218 32 258 75 q 82 -17 172 -17 q 36 -12 61 -17 l 36 65 q 125 100 110 68 q 139 188 139 128 l 139 972 l 258 972 z "},"K":{"ha":719,"x_min":125,"x_max":664,"o":"m 244 972 l 244 0 l 125 0 l 125 972 l 244 972 m 281 486 l 536 972 l 663 972 l 407 486 l 664 0 l 536 0 l 281 486 z "},"L":{"ha":586,"x_min":125,"x_max":558,"o":"m 125 0 l 125 972 l 244 972 l 244 97 l 558 97 l 558 0 l 125 0 z "},"M":{"ha":1008,"x_min":114,"x_max":894,"o":"m 569 236 l 439 236 l 256 782 l 247 782 l 229 0 l 114 0 l 143 972 l 296 972 l 500 358 l 508 358 l 713 972 l 865 972 l 894 0 l 779 0 l 761 782 l 753 782 l 569 236 z "},"N":{"ha":829,"x_min":125,"x_max":704,"o":"m 125 972 l 300 972 l 579 161 l 588 161 l 588 972 l 704 972 l 704 0 l 529 0 l 250 811 l 242 811 l 242 0 l 125 0 l 125 972 z "},"O":{"ha":824,"x_min":104,"x_max":719,"o":"m 606 16 q 589 9 606 16 q 524 -7 572 3 q 421 -17 476 -17 q 328 -13 365 -17 q 263 1 292 -10 q 211 21 233 11 q 172 54 189 31 q 143 94 154 78 q 124 149 132 111 q 113 212 117 186 q 107 292 108 238 q 104 490 104 397 q 106 631 104 583 q 112 744 107 678 q 129 840 117 811 q 163 905 142 868 q 217 956 183 942 q 404 989 306 989 q 560 969 503 989 q 651 921 618 949 q 699 818 685 893 q 717 682 714 743 q 719 503 719 621 q 718 339 719 386 q 712 225 717 292 q 694 130 707 158 q 661 65 682 101 q 606 16 640 29 m 599 268 l 599 704 q 575 839 599 815 q 499 883 540 876 q 413 890 458 890 q 333 885 367 890 q 280 865 300 879 q 248 839 260 851 q 231 800 236 826 q 225 704 225 767 l 225 268 q 247 133 225 157 q 325 89 283 96 q 413 82 367 82 q 491 88 458 82 q 544 107 524 93 q 576 133 564 121 q 592 172 588 146 q 599 268 599 206 z "},"P":{"ha":713,"x_min":125,"x_max":643,"o":"m 125 972 l 335 972 q 572 901 501 972 q 643 658 643 831 q 572 415 643 486 q 335 344 501 344 l 244 344 l 244 0 l 125 0 l 125 972 m 522 625 l 522 692 q 521 753 522 733 q 510 801 519 774 q 482 842 501 829 q 336 874 432 874 l 244 874 l 244 443 l 336 443 q 482 475 432 443 q 521 564 517 497 q 522 625 522 583 z "},"Q":{"ha":824,"x_min":104,"x_max":719,"o":"m 109 260 q 107 290 109 260 q 105 361 106 319 q 104 493 104 403 q 106 631 104 583 q 112 744 107 678 q 129 840 117 811 q 163 905 142 868 q 217 956 183 942 q 404 989 306 989 q 560 969 503 989 q 651 921 618 949 q 699 818 685 893 q 717 682 714 743 q 719 489 719 621 q 717 297 719 357 q 703 165 715 238 q 664 64 690 93 q 464 -15 596 -8 l 464 -22 l 472 -29 l 507 -172 l 399 -172 l 369 -15 q 226 14 263 -10 q 170 54 189 38 q 139 108 151 71 q 119 174 126 146 q 109 260 113 201 m 599 268 l 599 704 q 575 839 599 815 q 499 883 540 876 q 413 890 458 890 q 333 885 367 890 q 280 865 300 879 q 248 839 260 851 q 231 800 236 826 q 225 704 225 767 l 225 268 q 247 133 225 157 q 325 89 283 96 q 413 82 367 82 q 491 88 458 82 q 544 107 524 93 q 576 133 564 121 q 592 172 588 146 q 599 268 599 206 z "},"R":{"ha":750,"x_min":125,"x_max":667,"o":"m 335 372 l 244 372 l 244 0 l 125 0 l 125 972 l 335 972 q 572 905 501 972 q 643 672 643 838 q 610 492 643 558 q 507 399 578 426 l 667 0 l 544 0 l 392 374 q 335 372 374 372 m 522 642 l 522 703 q 521 760 522 742 q 510 806 519 779 q 482 844 501 832 q 336 874 433 874 l 244 874 l 244 471 l 336 471 q 482 500 433 471 q 510 539 501 513 q 521 584 519 565 q 522 642 522 603 z "},"S":{"ha":681,"x_min":76,"x_max":604,"o":"m 604 265 q 604 200 604 265 q 542 59 604 135 q 337 -17 479 -17 q 76 35 194 -17 l 101 121 q 329 82 213 82 q 449 122 411 82 q 488 246 488 163 q 467 372 488 329 q 379 425 446 415 l 242 444 q 112 524 144 460 q 79 717 79 588 q 147 917 79 846 q 333 989 214 989 q 571 944 451 989 l 546 861 q 358 890 442 890 q 235 856 274 890 q 196 729 196 822 q 216 596 196 636 q 297 547 236 556 l 428 528 q 560 455 517 514 q 604 265 604 396 z "},"T":{"ha":556,"x_min":14,"x_max":542,"o":"m 14 875 l 14 972 l 542 972 l 542 875 l 338 875 l 338 0 l 218 0 l 218 875 l 14 875 z "},"U":{"ha":849,"x_min":118,"x_max":731,"o":"m 611 268 l 611 972 l 731 972 l 731 485 q 706 131 731 188 q 673 66 694 103 q 618 16 651 29 q 537 -7 585 3 q 424 -17 489 -17 q 311 -7 358 -17 q 230 16 264 3 q 175 66 196 29 q 142 131 154 103 q 125 225 131 158 q 118 485 118 308 l 118 972 l 238 972 l 238 268 q 239 206 238 226 q 249 158 240 186 q 278 118 258 131 q 334 96 297 106 q 425 86 371 86 q 515 96 479 86 q 571 118 551 106 q 599 158 590 131 q 610 206 608 186 q 611 268 611 226 z "},"V":{"ha":739,"x_min":49,"x_max":690,"o":"m 463 0 l 276 0 l 49 972 l 167 972 l 365 79 l 374 79 l 572 972 l 690 972 l 463 0 z "},"W":{"ha":1174,"x_min":76,"x_max":1097,"o":"m 933 0 l 746 0 l 590 794 l 582 794 l 428 0 l 240 0 l 76 972 l 194 972 l 335 79 l 343 79 l 521 972 l 653 972 l 831 79 l 839 79 l 979 972 l 1097 972 l 933 0 z "},"X":{"ha":715,"x_min":42,"x_max":674,"o":"m 357 604 l 546 972 l 672 972 l 424 486 l 674 0 l 546 0 l 357 368 l 169 0 l 42 0 l 292 486 l 43 972 l 169 972 l 357 604 z "},"Y":{"ha":664,"x_min":35,"x_max":629,"o":"m 388 0 l 276 0 l 276 313 l 35 972 l 157 972 l 328 443 l 336 443 l 507 972 l 629 972 l 388 313 l 388 0 z "},"Z":{"ha":676,"x_min":56,"x_max":621,"o":"m 83 875 l 83 972 l 621 972 l 621 890 l 185 97 l 614 97 l 614 0 l 56 0 l 56 82 l 493 875 l 83 875 z "},"[":{"ha":472,"x_min":125,"x_max":389,"o":"m 125 -139 l 125 1111 l 389 1111 l 389 1014 l 244 1014 l 244 -42 l 389 -42 l 389 -139 l 125 -139 z "},"\\":{"ha":489,"x_min":0,"x_max":489,"o":"m 0 972 l 106 972 l 489 0 l 383 0 l 0 972 z "},"]":{"ha":472,"x_min":83,"x_max":347,"o":"m 347 1111 l 347 -139 l 83 -139 l 83 -42 l 228 -42 l 228 1014 l 83 1014 l 83 1111 l 347 1111 z "},"^":{"ha":694,"x_min":111,"x_max":583,"o":"m 299 897 l 396 897 l 583 489 l 486 489 l 347 790 l 208 489 l 111 489 l 299 897 z "},"_":{"ha":597,"x_min":42,"x_max":556,"o":"m 42 -107 l 42 -17 l 556 -17 l 556 -107 l 42 -107 z "},"`":{"ha":597,"x_min":131,"x_max":424,"o":"m 424 861 l 392 814 l 131 957 l 194 1050 l 424 861 z "},"a":{"ha":690,"x_min":97,"x_max":579,"o":"m 579 0 l 517 0 l 499 68 q 424 10 465 31 q 354 -13 382 -10 q 276 -17 326 -17 q 186 1 225 -17 q 128 56 147 19 q 97 213 97 114 q 169 375 97 338 q 222 397 199 389 q 291 410 244 406 q 370 415 338 414 q 465 417 403 415 l 465 521 q 435 619 465 593 q 324 644 404 644 q 149 614 243 644 l 126 683 q 356 736 235 736 q 542 678 500 736 q 572 611 564 646 q 579 521 579 576 l 579 0 m 465 194 l 465 338 q 297 327 324 338 q 249 306 269 317 q 211 229 211 286 l 211 197 q 232 101 211 129 q 331 74 253 74 q 438 105 410 74 q 465 194 465 136 z "},"b":{"ha":714,"x_min":125,"x_max":610,"o":"m 239 519 l 239 89 q 381 74 315 74 q 470 100 447 74 q 493 204 493 126 l 493 517 q 472 613 493 585 q 373 640 451 640 q 267 609 294 640 q 239 519 239 578 m 125 1000 l 232 1000 l 232 675 q 413 729 290 729 q 573 655 536 729 q 610 394 610 581 q 604 197 610 233 q 593 130 599 160 q 578 84 588 100 q 556 49 569 68 q 526 19 543 29 q 486 0 508 10 q 354 -17 446 -17 q 125 24 263 -17 l 125 1000 z "},"c":{"ha":563,"x_min":104,"x_max":518,"o":"m 515 704 l 493 631 q 369 646 432 646 q 278 638 307 646 q 237 608 249 629 q 222 571 225 588 q 219 519 219 554 l 219 203 q 353 72 219 72 q 501 94 407 72 l 518 19 q 342 -17 439 -17 q 234 -2 275 -17 q 176 31 193 13 q 146 64 158 49 q 126 108 133 79 q 114 159 118 138 q 108 219 110 181 q 104 344 104 286 l 104 428 q 110 533 104 501 q 121 594 115 565 q 136 637 126 622 q 159 671 146 651 q 191 700 172 690 q 233 719 210 710 q 355 738 271 738 q 515 704 439 738 z "},"d":{"ha":714,"x_min":104,"x_max":589,"o":"m 475 194 l 475 625 q 333 640 399 640 q 244 614 267 640 q 221 510 221 588 l 221 197 q 242 101 221 129 q 341 74 263 74 q 447 105 419 74 q 475 194 475 136 m 104 306 q 104 392 104 306 q 110 516 104 479 q 121 583 115 553 q 135 628 126 613 q 158 664 144 644 q 188 693 171 683 q 228 713 206 703 q 344 729 268 729 q 482 711 421 729 l 482 1000 l 589 1000 l 589 0 l 526 0 l 508 68 q 440 10 482 31 q 367 -13 397 -10 q 294 -17 338 -17 q 141 58 178 -17 q 104 306 104 132 z "},"e":{"ha":664,"x_min":104,"x_max":588,"o":"m 219 525 l 219 382 q 388 392 361 382 q 436 414 415 403 q 474 490 474 433 l 474 522 q 453 618 474 590 q 353 646 432 646 q 247 615 275 646 q 219 525 219 583 m 233 720 q 244 725 233 720 q 286 734 256 731 q 373 738 317 738 q 478 722 429 738 q 549 674 526 707 q 580 608 572 642 q 588 530 588 574 q 582 458 588 486 q 569 408 576 429 q 544 372 561 388 q 512 344 526 356 q 469 326 497 333 q 419 314 440 318 q 360 307 399 310 q 219 303 301 303 l 219 199 q 250 101 219 126 q 343 75 281 75 q 550 114 458 75 l 572 44 q 342 -17 468 -17 q 234 -2 275 -17 q 176 31 193 13 q 146 64 158 49 q 126 108 133 79 q 114 159 118 138 q 108 219 110 181 q 104 344 104 286 l 104 428 q 110 533 104 501 q 121 594 115 565 q 136 637 126 622 q 159 671 146 651 q 191 700 172 690 q 233 720 210 710 z "},"f":{"ha":446,"x_min":69,"x_max":457,"o":"m 393 933 q 306 898 332 933 q 279 769 279 863 l 279 722 l 410 722 l 410 640 l 279 640 l 279 0 l 165 0 l 165 640 l 69 640 l 69 701 l 165 721 q 219 961 169 907 q 356 1013 265 1013 q 457 1001 394 1013 l 449 929 q 393 933 417 933 z "},"g":{"ha":721,"x_min":104,"x_max":596,"o":"m 475 224 l 475 632 q 333 647 399 647 q 244 621 267 647 q 221 517 221 594 l 221 226 q 242 131 221 158 q 341 103 263 103 q 447 134 419 103 q 475 224 475 165 m 482 -54 l 482 68 q 301 14 424 14 q 141 93 178 14 q 104 360 104 172 q 125 608 104 553 q 193 706 151 683 q 357 738 256 738 q 596 697 458 738 l 596 -50 q 588 -141 596 -106 q 558 -208 581 -176 q 383 -269 515 -269 q 143 -217 251 -269 l 165 -147 q 340 -178 260 -178 q 451 -152 421 -178 q 482 -54 482 -126 z "},"h":{"ha":718,"x_min":125,"x_max":607,"o":"m 607 500 l 607 0 l 493 0 l 493 515 q 472 611 493 583 q 373 639 451 639 q 267 608 294 639 q 239 518 239 576 l 239 0 l 125 0 l 125 1000 l 232 1000 l 232 660 q 419 729 297 729 q 575 658 538 729 q 607 500 607 599 z "},"i":{"ha":364,"x_min":110,"x_max":254,"o":"m 125 722 l 239 722 l 239 0 l 125 0 l 125 722 m 151 994 q 156 995 151 994 q 182 996 161 996 q 213 994 203 996 q 233 986 222 993 q 254 938 254 976 q 250 885 254 900 q 234 865 246 871 q 213 857 222 858 q 182 856 203 856 q 151 857 161 856 q 131 864 142 858 q 110 913 110 875 q 114 966 110 951 q 130 987 118 981 q 151 994 142 993 z "},"j":{"ha":364,"x_min":-25,"x_max":254,"o":"m 151 994 q 156 995 151 994 q 182 996 161 996 q 213 994 203 996 q 233 986 222 993 q 254 938 254 976 q 250 885 254 900 q 234 865 246 871 q 213 857 222 858 q 182 856 203 856 q 151 857 161 856 q 131 864 142 858 q 110 913 110 875 q 114 966 110 951 q 130 987 118 981 q 151 994 142 993 m 125 -75 l 125 722 l 239 722 l 239 -46 q 200 -224 239 -182 q 71 -269 158 -269 q -25 -250 18 -269 l 0 -169 q 72 -181 40 -181 q 114 -156 103 -181 q 125 -75 125 -132 z "},"k":{"ha":653,"x_min":125,"x_max":611,"o":"m 239 1000 l 239 0 l 125 0 l 125 1000 l 239 1000 m 272 383 l 479 722 l 600 722 l 393 383 l 611 0 l 490 0 l 272 383 z "},"l":{"ha":364,"x_min":125,"x_max":239,"o":"m 239 0 l 125 0 l 125 1000 l 239 1000 l 239 0 z "},"m":{"ha":1044,"x_min":125,"x_max":933,"o":"m 933 508 l 933 0 l 819 0 l 819 524 q 800 619 819 592 q 709 647 781 647 q 612 616 638 647 q 586 526 586 585 l 586 0 l 472 0 l 472 524 q 453 619 472 592 q 362 647 433 647 q 265 616 290 647 q 239 526 239 585 l 239 0 l 125 0 l 125 722 l 188 722 l 206 654 q 270 712 231 692 q 336 735 310 732 q 404 738 363 738 q 558 661 517 738 q 751 738 614 738 q 903 667 867 738 q 933 508 933 606 z "},"n":{"ha":718,"x_min":125,"x_max":607,"o":"m 607 508 l 607 0 l 493 0 l 493 524 q 472 619 493 592 q 373 647 451 647 q 267 616 294 647 q 239 526 239 585 l 239 0 l 125 0 l 125 722 l 188 722 l 206 654 q 275 712 232 692 q 347 735 318 732 q 427 738 375 738 q 518 719 479 738 q 575 667 557 701 q 607 508 607 607 z "},"o":{"ha":713,"x_min":104,"x_max":608,"o":"m 431 -10 q 414 -14 431 -10 q 356 -17 397 -17 q 281 -10 314 -17 q 222 3 247 -4 q 178 30 197 11 q 147 63 160 49 q 126 108 135 78 q 114 159 118 139 q 107 221 110 179 q 104 286 104 263 l 104 436 q 111 549 104 517 q 126 613 118 582 q 147 658 135 643 q 178 691 160 672 q 222 717 197 710 q 281 731 247 725 q 356 738 314 738 q 431 731 397 738 q 489 717 464 725 q 533 691 514 710 q 565 658 553 672 q 586 613 578 643 q 599 563 594 582 q 606 501 603 543 q 608 436 608 460 q 608 286 608 436 q 601 172 608 206 q 586 108 594 139 q 565 63 578 78 q 533 30 553 49 q 489 3 514 11 q 431 -10 464 -4 m 490 201 l 490 519 q 488 571 490 554 q 474 609 485 588 q 433 639 463 631 q 356 647 404 647 q 277 639 307 647 q 236 609 247 631 q 222 571 225 588 q 219 519 219 554 l 219 201 q 222 150 219 167 q 236 112 225 133 q 277 82 247 90 q 356 74 307 74 q 433 82 404 74 q 474 112 463 90 q 488 150 485 133 q 490 201 490 167 z "},"p":{"ha":714,"x_min":125,"x_max":610,"o":"m 239 526 l 239 104 q 381 89 315 89 q 470 115 447 89 q 493 219 493 142 l 493 524 q 472 619 493 592 q 373 647 451 647 q 267 616 294 647 q 239 526 239 585 m 610 401 q 610 305 610 401 q 600 171 610 208 q 578 102 590 133 q 549 56 567 71 q 507 25 532 40 q 378 0 463 0 q 232 18 293 0 l 232 -253 l 125 -253 l 125 722 l 188 722 l 206 654 q 275 712 232 692 q 347 735 318 732 q 419 738 375 738 q 574 666 538 738 q 610 401 610 594 z "},"q":{"ha":714,"x_min":104,"x_max":589,"o":"m 475 210 l 475 632 q 333 647 399 647 q 244 621 267 647 q 221 517 221 594 l 221 213 q 242 117 221 144 q 341 89 263 89 q 447 120 419 89 q 475 210 475 151 m 589 -253 l 482 -253 l 482 54 q 300 0 424 0 q 140 72 176 0 q 104 328 104 143 q 114 567 104 529 q 135 635 124 604 q 165 682 147 667 q 207 711 182 697 q 351 738 251 738 q 589 697 451 738 l 589 -253 z "},"r":{"ha":449,"x_min":125,"x_max":451,"o":"m 239 0 l 125 0 l 125 722 l 188 722 l 210 638 q 451 738 311 736 l 440 638 q 239 563 314 638 l 239 0 z "},"s":{"ha":619,"x_min":83,"x_max":536,"o":"m 390 403 q 501 347 465 393 q 536 201 536 301 q 483 42 536 100 q 303 -17 429 -17 q 83 29 178 -17 l 106 99 q 299 75 231 75 q 396 102 367 75 q 425 184 425 129 q 409 267 425 239 q 343 301 393 294 l 231 317 q 119 378 149 328 q 90 525 90 429 q 147 679 90 621 q 300 738 203 738 q 515 692 428 738 l 494 614 q 320 640 382 640 q 230 619 258 640 q 201 536 201 599 q 214 450 201 474 q 278 418 226 426 l 390 403 z "},"t":{"ha":469,"x_min":69,"x_max":414,"o":"m 282 847 l 282 722 l 410 722 l 410 640 l 282 640 l 282 174 q 294 89 282 114 q 342 64 307 64 q 404 69 376 64 l 414 0 q 319 -17 364 -17 q 245 -7 274 -17 q 201 17 217 3 q 178 58 186 31 q 168 174 168 96 l 168 640 l 69 640 l 69 701 l 168 722 l 231 847 l 282 847 z "},"u":{"ha":718,"x_min":111,"x_max":593,"o":"m 111 213 l 111 722 l 225 722 l 225 197 q 246 101 225 129 q 345 74 267 74 q 451 105 424 74 q 479 194 479 136 l 479 722 l 593 722 l 593 0 l 531 0 l 513 68 q 444 10 486 31 q 372 -13 401 -10 q 290 -17 342 -17 q 200 1 239 -17 q 142 56 161 19 q 111 213 111 114 z "},"v":{"ha":631,"x_min":56,"x_max":575,"o":"m 407 0 l 224 0 l 56 722 l 168 722 l 311 75 l 319 75 l 463 722 l 575 722 l 407 0 z "},"w":{"ha":968,"x_min":56,"x_max":913,"o":"m 775 0 l 603 0 l 488 617 l 479 617 l 365 0 l 193 0 l 56 722 l 168 722 l 283 75 l 292 75 l 413 722 l 556 722 l 676 75 l 685 75 l 800 722 l 913 722 l 775 0 z "},"x":{"ha":635,"x_min":56,"x_max":579,"o":"m 317 476 l 447 722 l 568 722 l 382 369 l 579 0 l 458 0 l 317 264 l 176 0 l 56 0 l 253 369 l 67 722 l 188 722 l 317 476 z "},"y":{"ha":631,"x_min":54,"x_max":575,"o":"m 79 -169 q 161 -178 117 -178 q 238 -153 206 -178 q 286 -67 271 -129 l 301 0 l 224 0 l 56 722 l 168 722 l 311 75 l 319 75 l 463 722 l 575 722 l 392 -62 q 316 -217 368 -164 q 150 -269 264 -269 q 54 -250 97 -269 l 79 -169 z "},"z":{"ha":629,"x_min":83,"x_max":546,"o":"m 97 632 l 97 722 l 539 722 l 539 647 l 214 90 l 546 90 l 546 0 l 83 0 l 83 75 l 411 632 l 97 632 z "},"{":{"ha":472,"x_min":32,"x_max":410,"o":"m 114 651 l 111 736 q 169 1041 111 957 q 403 1125 226 1125 l 410 1035 q 260 958 296 1035 q 236 880 242 921 q 231 730 231 839 q 213 564 231 621 q 138 489 194 507 l 138 478 q 213 403 194 458 q 231 239 231 347 q 236 90 231 131 q 260 11 242 49 q 410 -65 296 -65 l 403 -156 q 169 -71 226 -156 q 111 236 111 14 l 114 317 q 32 443 114 435 l 32 513 q 114 651 114 521 z "},"|":{"ha":453,"x_min":167,"x_max":286,"o":"m 167 1111 l 286 1111 l 286 -139 l 167 -139 l 167 1111 z "},"}":{"ha":472,"x_min":63,"x_max":440,"o":"m 358 317 l 361 236 q 303 -71 361 14 q 69 -156 246 -156 l 63 -65 q 213 11 176 -65 q 236 90 231 49 q 242 239 242 131 q 260 403 242 347 q 335 478 278 458 l 335 489 q 260 564 278 507 q 242 730 242 621 q 236 880 242 839 q 213 958 231 921 q 63 1035 176 1035 l 69 1125 q 303 1041 246 1125 q 361 736 361 957 l 358 651 q 440 513 358 521 l 440 443 q 358 317 358 435 z "},"~":{"ha":694,"x_min":83,"x_max":611,"o":"m 83 489 q 192 446 132 446 q 340 489 253 446 q 489 532 426 532 q 611 489 551 532 l 611 392 q 495 433 557 433 q 347 390 433 433 q 194 347 260 347 q 83 392 129 347 l 83 489 z "}," ":{"ha":347,"x_min":0,"x_max":0,"o":""},"¡":{"ha":369,"x_min":106,"x_max":264,"o":"m 219 583 q 214 583 219 583 q 185 582 208 582 q 151 583 161 582 q 128 592 140 585 q 110 615 115 599 q 106 658 106 631 q 110 703 106 686 q 128 726 115 719 q 151 735 140 733 q 185 736 161 736 q 219 735 208 736 q 242 726 229 733 q 259 703 254 719 q 264 658 264 686 q 259 615 264 631 q 242 592 254 599 q 219 583 229 585 m 139 471 l 231 471 l 247 -247 l 122 -247 l 139 471 z "},"¢":{"ha":694,"x_min":144,"x_max":600,"o":"m 346 -139 l 346 79 q 206 140 243 90 q 171 194 183 168 q 153 269 158 219 q 144 426 144 343 q 145 540 144 510 q 149 613 146 569 q 161 681 153 657 q 183 733 169 704 q 219 778 197 763 q 346 826 269 817 l 346 1042 l 433 1042 l 433 831 q 597 797 521 828 l 575 724 q 432 739 504 739 q 326 731 360 739 q 279 701 293 722 q 263 664 265 681 q 260 613 260 647 l 260 296 q 413 165 260 165 q 583 188 475 165 l 600 113 q 433 76 524 81 l 433 -139 l 346 -139 z "},"£":{"ha":694,"x_min":64,"x_max":635,"o":"m 64 400 l 64 483 l 178 483 q 164 586 175 518 q 153 681 153 654 q 217 851 153 789 q 399 914 281 914 q 635 869 518 914 l 610 786 q 420 815 506 815 q 299 788 335 815 q 264 676 264 760 q 274 589 264 656 q 288 483 283 522 l 531 483 l 531 400 l 292 400 q 232 97 292 226 l 633 97 l 633 0 l 111 0 l 111 78 q 183 400 183 222 l 64 400 z "},"¤":{"ha":694,"x_min":39,"x_max":656,"o":"m 538 563 q 550 440 550 531 q 538 317 550 350 l 656 200 l 588 132 l 468 251 q 350 236 428 236 q 226 251 272 236 l 107 132 l 39 200 l 157 318 q 147 440 147 351 q 157 561 147 529 l 39 681 l 107 749 l 226 628 q 346 644 269 644 q 468 629 422 644 l 588 749 l 656 681 l 538 563 m 451 386 l 451 493 q 440 536 451 522 q 360 560 421 560 q 276 549 299 560 q 249 528 253 539 q 246 493 246 517 l 246 386 q 290 325 246 333 q 349 319 313 319 q 408 324 386 319 q 439 340 431 329 q 451 386 451 357 z "},"¥":{"ha":694,"x_min":50,"x_max":644,"o":"m 403 275 l 611 275 l 611 192 l 403 192 l 403 0 l 292 0 l 292 192 l 86 192 l 86 275 l 292 275 l 292 339 l 265 400 l 86 400 l 86 483 l 229 483 l 50 897 l 172 897 l 343 483 l 351 483 l 522 897 l 644 897 l 465 483 l 611 483 l 611 400 l 429 400 l 403 339 l 403 275 z "},"¦":{"ha":453,"x_min":167,"x_max":286,"o":"m 167 1111 l 286 1111 l 286 629 l 167 629 l 167 1111 m 167 343 l 286 343 l 286 -139 l 167 -139 l 167 343 z "},"§":{"ha":681,"x_min":76,"x_max":604,"o":"m 242 161 q 112 233 144 174 q 79 393 79 292 q 113 553 79 494 q 79 728 79 606 q 147 920 79 851 q 333 989 215 989 q 571 944 451 989 l 546 864 q 355 890 436 890 q 235 859 274 890 q 196 742 196 828 q 216 621 196 657 q 297 576 236 585 l 428 558 q 560 492 517 546 q 604 333 604 439 q 567 160 604 226 q 604 -12 604 100 q 542 -197 604 -124 q 337 -269 479 -269 q 76 -218 194 -269 l 101 -135 q 312 -171 213 -171 q 449 -134 411 -171 q 488 -7 488 -97 q 482 60 488 33 q 451 112 476 86 q 379 143 425 138 l 242 161 m 488 315 q 482 382 488 356 q 451 434 476 408 q 379 465 425 460 l 242 483 q 196 493 224 485 l 196 413 q 216 299 196 335 q 297 254 236 263 l 428 236 q 488 221 458 232 l 488 315 z "},"¨":{"ha":597,"x_min":101,"x_max":496,"o":"m 143 994 q 148 995 143 994 q 174 996 153 996 q 204 994 194 996 q 225 986 214 993 q 246 938 246 976 q 242 885 246 900 q 226 865 238 871 q 204 857 214 858 q 174 856 194 856 q 143 857 153 856 q 122 864 133 858 q 101 913 101 875 q 106 966 101 951 q 122 987 110 981 q 143 994 133 993 m 393 994 q 398 995 393 994 q 424 996 403 996 q 454 994 444 996 q 475 986 464 993 q 496 938 496 976 q 492 885 496 900 q 476 865 488 871 q 454 857 464 858 q 424 856 444 856 q 393 857 403 856 q 372 864 383 858 q 351 913 351 875 q 356 966 351 951 q 372 987 360 981 q 393 994 383 993 z "},"©":{"ha":754,"x_min":69,"x_max":685,"o":"m 683 759 q 684 740 683 759 q 685 638 685 721 q 683 516 685 554 q 665 424 681 478 q 618 347 650 371 q 375 290 538 290 q 161 333 217 290 q 122 363 138 350 q 97 405 107 376 q 81 451 86 433 q 73 508 75 469 q 70 568 71 546 q 69 638 69 590 q 70 707 69 685 q 73 768 71 729 q 81 825 75 807 q 97 872 86 843 q 122 913 107 900 q 160 944 138 926 q 214 968 183 961 q 378 986 290 986 q 526 968 465 986 q 618 928 586 950 q 665 851 650 906 q 683 759 681 797 m 240 356 q 265 350 240 356 q 374 344 290 344 q 508 356 457 344 q 578 395 558 368 q 603 443 599 422 q 607 507 607 464 l 607 769 q 603 833 607 813 q 578 881 599 854 q 508 920 558 908 q 374 932 457 932 q 240 920 290 932 q 169 881 189 908 q 144 833 149 854 q 140 769 140 813 l 140 507 q 144 443 140 464 q 169 395 149 422 q 240 356 189 368 m 273 848 q 282 855 273 848 q 322 873 290 863 q 397 883 353 883 q 499 867 442 883 l 485 801 q 392 810 422 810 q 344 799 363 810 q 324 776 326 789 q 321 735 321 764 l 321 540 q 329 489 321 504 q 388 464 343 464 q 490 476 433 464 l 508 418 q 399 392 446 392 q 322 402 353 392 q 273 427 290 413 q 247 478 256 442 q 238 544 239 515 q 236 638 236 574 q 238 731 236 701 q 247 797 239 760 q 273 848 256 833 z "},"ª":{"ha":560,"x_min":110,"x_max":435,"o":"m 435 504 l 392 504 l 369 551 q 244 493 325 493 q 136 534 163 493 q 110 631 110 575 q 122 713 110 686 q 150 755 133 740 q 203 776 167 769 q 351 788 261 788 l 351 850 q 275 919 351 919 q 146 897 221 919 l 128 950 q 291 989 206 989 q 406 953 376 989 q 435 843 435 918 l 435 504 m 351 636 l 351 725 q 207 699 233 725 q 194 665 194 686 l 194 638 q 210 581 194 600 q 269 563 225 563 q 351 636 351 563 z "},"«":{"ha":611,"x_min":42,"x_max":542,"o":"m 264 722 l 160 428 l 264 133 l 165 117 l 42 428 l 165 739 l 264 722 m 542 722 l 438 428 l 542 133 l 443 117 l 319 428 l 443 739 l 542 722 z "},"¬":{"ha":694,"x_min":83,"x_max":611,"o":"m 83 392 l 83 489 l 611 489 l 611 207 l 519 207 l 519 392 l 83 392 z "},"®":{"ha":754,"x_min":69,"x_max":685,"o":"m 683 759 q 684 740 683 759 q 685 638 685 721 q 683 516 685 554 q 665 424 681 478 q 618 347 650 371 q 375 290 538 290 q 161 333 217 290 q 122 363 138 350 q 97 405 107 376 q 81 451 86 433 q 73 508 75 469 q 70 568 71 546 q 69 638 69 590 q 70 707 69 685 q 73 768 71 729 q 81 825 75 807 q 97 872 86 843 q 122 913 107 900 q 160 944 138 926 q 214 968 183 961 q 378 986 290 986 q 526 968 465 986 q 618 928 586 950 q 665 851 650 906 q 683 759 681 797 m 240 356 q 265 350 240 356 q 374 344 290 344 q 508 356 457 344 q 578 395 558 368 q 603 443 599 422 q 607 507 607 464 l 607 769 q 603 833 607 813 q 578 881 599 854 q 508 920 558 908 q 374 932 457 932 q 240 920 290 932 q 169 881 189 908 q 144 833 149 854 q 140 769 140 813 l 140 507 q 144 443 140 464 q 169 395 149 422 q 240 356 189 368 m 331 574 l 331 401 l 247 401 l 247 875 l 349 875 q 483 841 443 875 q 524 725 524 807 q 453 590 524 619 l 540 401 l 456 401 l 374 574 l 331 574 m 440 711 l 440 738 q 432 782 440 769 q 364 803 418 803 l 331 803 l 331 646 l 364 646 q 431 665 418 646 q 440 711 440 681 z "},"¯":{"ha":556,"x_min":111,"x_max":444,"o":"m 111 882 l 111 969 l 444 969 l 444 882 l 111 882 z "},"°":{"ha":500,"x_min":69,"x_max":431,"o":"m 429 856 q 430 844 429 856 q 431 785 431 833 q 429 714 431 736 q 419 660 428 692 q 391 615 410 628 q 337 591 372 601 q 249 581 301 581 q 161 591 196 581 q 108 615 126 601 q 81 660 90 628 q 71 714 72 692 q 69 785 69 736 q 71 856 69 833 q 81 910 72 878 q 108 955 90 942 q 161 978 126 968 q 249 989 196 989 q 337 978 301 989 q 391 955 372 968 q 419 910 410 942 q 429 856 428 878 m 332 731 l 332 838 q 297 900 332 890 q 251 904 281 904 q 203 899 221 904 q 178 883 185 894 q 168 838 168 868 l 168 731 q 176 688 168 700 q 251 664 190 664 q 322 685 310 664 q 332 731 332 700 z "},"±":{"ha":694,"x_min":83,"x_max":611,"o":"m 83 392 l 83 489 l 299 489 l 299 704 l 396 704 l 396 489 l 611 489 l 611 392 l 396 392 l 396 176 l 299 176 l 299 392 l 83 392 m 83 0 l 83 97 l 611 97 l 611 0 l 83 0 z "},"²":{"ha":465,"x_min":78,"x_max":379,"o":"m 230 999 q 264 999 230 999 q 338 965 297 999 q 379 863 379 931 q 315 724 379 796 l 183 578 l 379 578 l 379 507 l 78 507 l 78 575 l 250 768 q 292 857 292 814 q 276 913 292 900 q 217 926 260 926 q 101 904 174 926 l 82 964 q 230 999 163 999 z "},"³":{"ha":465,"x_min":75,"x_max":379,"o":"m 213 999 q 364 867 364 999 q 314 758 364 797 q 379 647 379 728 q 213 500 379 500 q 78 528 144 500 l 97 588 q 210 574 179 574 q 258 580 240 574 q 282 600 275 586 q 292 642 292 618 q 290 677 292 665 q 276 701 288 689 q 240 714 264 713 l 139 721 l 139 779 l 229 785 q 276 857 276 788 q 210 926 276 926 q 94 904 168 926 l 75 964 q 213 999 153 999 z "},"´":{"ha":597,"x_min":172,"x_max":465,"o":"m 204 814 l 172 861 l 401 1050 l 465 957 l 204 814 z "},"µ":{"ha":717,"x_min":125,"x_max":606,"o":"m 125 -253 l 125 722 l 239 722 l 239 197 q 262 102 239 131 q 365 74 285 74 q 469 102 446 74 q 492 197 492 131 l 492 722 l 606 722 l 606 213 q 551 31 606 78 q 382 -17 496 -17 q 229 22 268 -17 l 229 -253 l 125 -253 z "},"¶":{"ha":554,"x_min":56,"x_max":429,"o":"m 429 0 l 315 0 l 315 322 q 132 358 181 322 q 100 385 113 374 q 78 420 88 396 q 65 460 69 444 q 58 508 61 475 q 56 558 56 540 q 56 678 56 558 q 63 766 56 740 q 78 816 69 792 q 100 851 88 840 q 132 877 113 863 q 178 897 151 892 q 315 914 246 914 l 429 914 l 429 0 z "},"·":{"ha":349,"x_min":83,"x_max":265,"o":"m 165 507 q 182 507 165 507 q 213 506 200 507 q 239 497 225 504 q 265 419 265 483 q 239 340 265 356 q 183 329 219 329 q 135 331 147 329 q 108 340 124 332 q 83 419 83 356 q 108 497 83 483 q 165 507 129 507 z "},"¸":{"ha":253,"x_min":14,"x_max":239,"o":"m 138 -78 q 218 -101 197 -78 q 239 -168 239 -124 q 213 -241 239 -212 q 122 -269 188 -269 q 14 -246 57 -269 l 28 -197 q 99 -208 75 -208 q 134 -202 122 -208 q 147 -189 146 -196 q 149 -170 149 -182 q 147 -152 149 -158 q 136 -138 146 -146 q 108 -131 126 -131 l 81 -131 l 60 -97 l 74 0 l 131 0 l 121 -78 l 138 -78 z "},"¹":{"ha":465,"x_min":92,"x_max":297,"o":"m 297 999 l 297 507 l 210 507 l 210 899 l 118 864 l 92 932 l 269 999 l 297 999 z "},"º":{"ha":574,"x_min":115,"x_max":454,"o":"m 417 535 q 409 526 417 535 q 367 506 400 518 q 284 493 333 493 q 201 506 235 493 q 151 535 168 518 q 126 590 135 551 q 117 656 118 628 q 115 742 115 683 q 117 828 115 800 q 126 894 118 856 q 151 949 135 932 q 283 990 193 990 q 417 949 374 990 q 453 828 449 919 q 454 742 454 800 q 453 656 454 683 q 443 590 451 628 q 417 535 435 551 m 365 633 l 365 849 q 350 903 365 886 q 283 921 335 921 q 215 903 231 921 q 200 849 200 886 l 200 633 q 215 580 200 597 q 283 563 231 563 q 350 580 335 563 q 365 633 365 597 z "},"»":{"ha":611,"x_min":69,"x_max":569,"o":"m 451 428 l 347 722 l 446 739 l 569 428 l 446 117 l 347 133 l 451 428 m 174 428 l 69 722 l 168 739 l 292 428 l 168 117 l 69 133 l 174 428 z "},"¼":{"ha":1008,"x_min":85,"x_max":922,"o":"m 378 0 l 315 0 l 558 897 l 621 897 l 378 0 m 290 910 l 290 418 l 203 418 l 203 810 l 111 775 l 85 843 l 263 910 l 290 910 m 868 336 l 868 185 l 922 185 l 922 113 l 868 113 l 868 0 l 788 0 l 788 113 l 575 113 l 575 172 l 683 485 l 768 485 l 664 185 l 788 185 l 788 267 l 810 336 l 868 336 z "},"½":{"ha":1008,"x_min":85,"x_max":913,"o":"m 378 0 l 315 0 l 558 897 l 621 897 l 378 0 m 290 910 l 290 418 l 203 418 l 203 810 l 111 775 l 85 843 l 263 910 l 290 910 m 763 492 q 797 492 763 492 q 872 458 831 492 q 913 356 913 424 q 849 217 913 289 l 717 71 l 913 71 l 913 0 l 611 0 l 611 68 l 783 261 q 825 350 825 307 q 809 406 825 393 q 750 419 793 419 q 635 397 707 419 l 615 457 q 763 492 696 492 z "},"¾":{"ha":1008,"x_min":68,"x_max":922,"o":"m 408 0 l 346 0 l 589 897 l 651 897 l 408 0 m 206 910 q 357 778 357 910 q 307 669 357 708 q 372 558 372 639 q 206 411 372 411 q 71 439 136 411 l 90 499 q 203 485 172 485 q 251 491 233 485 q 275 511 268 497 q 285 553 285 529 q 283 588 285 576 q 269 612 281 600 q 233 625 257 624 l 132 632 l 132 690 l 222 696 q 269 768 269 699 q 203 838 269 838 q 88 815 161 838 l 68 875 q 206 910 146 910 m 868 336 l 868 185 l 922 185 l 922 113 l 868 113 l 868 0 l 788 0 l 788 113 l 575 113 l 575 172 l 683 485 l 768 485 l 664 185 l 788 185 l 788 267 l 810 336 l 868 336 z "},"¿":{"ha":501,"x_min":42,"x_max":474,"o":"m 160 -36 q 160 -73 160 -36 q 185 -139 160 -110 q 288 -168 210 -168 q 453 -147 367 -168 l 474 -237 q 294 -267 381 -267 q 100 -208 158 -267 q 42 -19 42 -149 q 150 235 42 111 l 224 319 q 272 390 264 367 q 281 474 281 414 l 374 474 q 364 345 374 382 q 314 261 354 308 l 240 176 q 178 82 196 126 q 160 -36 160 38 m 356 586 q 351 585 356 586 q 322 585 346 585 q 288 586 299 585 q 265 594 278 588 q 248 617 253 601 q 243 661 243 633 q 248 706 243 689 q 265 729 253 722 q 288 738 278 736 q 322 739 299 739 q 356 738 346 739 q 379 729 367 736 q 397 706 392 722 q 401 661 401 689 q 397 617 401 633 q 379 594 392 601 q 356 586 367 588 z "},"À":{"ha":761,"x_min":49,"x_max":713,"o":"m 171 0 l 49 0 l 279 972 l 482 972 l 713 0 l 590 0 l 533 246 l 228 246 l 171 0 m 510 343 l 385 883 l 376 883 l 250 343 l 510 343 m 526 1063 l 494 1015 l 233 1158 l 297 1251 l 526 1063 z "},"Á":{"ha":761,"x_min":49,"x_max":713,"o":"m 171 0 l 49 0 l 279 972 l 482 972 l 713 0 l 590 0 l 533 246 l 228 246 l 171 0 m 510 343 l 385 883 l 376 883 l 250 343 l 510 343 m 265 1015 l 233 1063 l 463 1251 l 526 1158 l 265 1015 z "},"Â":{"ha":761,"x_min":49,"x_max":713,"o":"m 171 0 l 49 0 l 279 972 l 482 972 l 713 0 l 590 0 l 533 246 l 228 246 l 171 0 m 510 343 l 385 883 l 376 883 l 250 343 l 510 343 m 565 1076 l 522 1025 l 379 1118 l 236 1025 l 194 1076 l 379 1238 l 565 1076 z "},"Ã":{"ha":761,"x_min":49,"x_max":713,"o":"m 171 0 l 49 0 l 279 972 l 482 972 l 713 0 l 590 0 l 533 246 l 228 246 l 171 0 m 510 343 l 385 883 l 376 883 l 250 343 l 510 343 m 563 1128 q 498 1075 522 1088 q 448 1063 474 1063 q 377 1081 422 1063 q 301 1100 332 1100 q 228 1072 271 1100 l 197 1125 q 262 1178 238 1165 q 312 1190 286 1190 q 383 1172 338 1190 q 458 1153 428 1153 q 532 1181 489 1153 l 563 1128 z "},"Ä":{"ha":761,"x_min":49,"x_max":713,"o":"m 171 0 l 49 0 l 279 972 l 482 972 l 713 0 l 590 0 l 533 246 l 228 246 l 171 0 m 510 343 l 385 883 l 376 883 l 250 343 l 510 343 m 225 1196 q 230 1197 225 1196 q 256 1197 235 1197 q 286 1196 276 1197 q 308 1189 296 1194 q 328 1140 328 1178 q 324 1087 328 1101 q 308 1066 319 1072 q 286 1058 296 1060 q 256 1057 276 1057 q 225 1058 235 1057 q 203 1067 215 1060 q 183 1115 183 1076 q 188 1167 183 1153 q 203 1188 192 1182 q 225 1196 215 1194 m 475 1196 q 480 1197 475 1196 q 506 1197 485 1197 q 536 1196 526 1197 q 558 1189 546 1194 q 578 1140 578 1178 q 574 1087 578 1101 q 558 1066 569 1072 q 536 1058 546 1060 q 506 1057 526 1057 q 475 1058 485 1057 q 453 1067 465 1060 q 433 1115 433 1076 q 438 1167 433 1153 q 453 1188 442 1182 q 475 1196 465 1194 z "},"Å":{"ha":761,"x_min":49,"x_max":713,"o":"m 171 0 l 49 0 l 279 972 l 482 972 l 713 0 l 590 0 l 533 246 l 228 246 l 171 0 m 510 343 l 385 883 l 376 883 l 250 343 l 510 343 m 415 1167 q 409 1172 415 1167 q 381 1176 403 1176 q 347 1167 358 1176 q 335 1128 335 1158 q 346 1088 335 1097 q 376 1079 357 1079 q 404 1081 396 1079 q 426 1122 426 1086 q 415 1167 426 1158 m 289 1222 q 303 1233 289 1222 q 381 1244 318 1244 q 472 1222 443 1244 q 501 1128 501 1200 q 472 1033 501 1056 q 381 1011 443 1011 q 289 1033 318 1011 q 260 1128 260 1056 q 289 1222 260 1200 z "},"Æ":{"ha":1050,"x_min":0,"x_max":994,"o":"m 638 875 l 638 481 l 939 481 l 939 383 l 638 383 l 638 97 l 994 97 l 994 0 l 518 0 l 518 383 l 271 383 l 122 0 l 0 0 l 382 972 l 981 972 l 967 875 l 638 875 m 518 481 l 518 875 l 461 875 l 308 481 l 518 481 z "},"Ç":{"ha":665,"x_min":104,"x_max":610,"o":"m 217 955 q 234 961 217 955 q 299 978 251 968 q 428 989 346 989 q 592 964 511 989 l 571 874 q 434 890 501 890 q 333 885 367 890 q 280 865 300 879 q 248 839 260 851 q 231 800 236 826 q 225 704 225 767 l 225 268 q 247 133 225 157 q 325 89 283 96 q 432 82 367 82 q 583 104 497 82 l 610 22 q 411 -17 517 -17 l 389 -17 l 382 -78 l 399 -78 q 479 -101 458 -78 q 500 -168 500 -124 q 474 -241 500 -212 q 383 -269 449 -269 q 275 -246 318 -269 l 289 -197 q 360 -208 336 -208 q 395 -202 383 -208 q 408 -189 407 -196 q 410 -170 410 -182 q 408 -152 410 -158 q 397 -138 407 -146 q 369 -131 388 -131 l 342 -131 l 321 -97 l 332 -12 q 229 11 258 -7 q 183 40 200 29 q 154 76 167 51 q 133 117 142 100 q 119 172 125 135 q 110 233 114 208 q 106 307 107 257 q 104 389 104 357 l 104 485 q 129 839 104 783 q 163 905 142 868 q 217 955 183 942 z "},"È":{"ha":657,"x_min":125,"x_max":601,"o":"m 125 0 l 125 972 l 588 972 l 574 875 l 244 875 l 244 536 l 546 536 l 546 439 l 244 439 l 244 97 l 601 97 l 601 0 l 125 0 m 517 1063 l 485 1015 l 224 1158 l 288 1251 l 517 1063 z "},"É":{"ha":657,"x_min":125,"x_max":601,"o":"m 125 0 l 125 972 l 588 972 l 574 875 l 244 875 l 244 536 l 546 536 l 546 439 l 244 439 l 244 97 l 601 97 l 601 0 l 125 0 m 269 1015 l 238 1063 l 467 1251 l 531 1158 l 269 1015 z "},"Ê":{"ha":657,"x_min":125,"x_max":601,"o":"m 125 0 l 125 972 l 588 972 l 574 875 l 244 875 l 244 536 l 546 536 l 546 439 l 244 439 l 244 97 l 601 97 l 601 0 l 125 0 m 556 1076 l 513 1025 l 369 1118 l 226 1025 l 185 1076 l 369 1238 l 556 1076 z "},"Ë":{"ha":657,"x_min":125,"x_max":601,"o":"m 125 0 l 125 972 l 588 972 l 574 875 l 244 875 l 244 536 l 546 536 l 546 439 l 244 439 l 244 97 l 601 97 l 601 0 l 125 0 m 207 1196 q 212 1197 207 1196 q 238 1197 217 1197 q 268 1196 258 1197 q 289 1189 278 1194 q 310 1140 310 1178 q 306 1087 310 1101 q 290 1066 301 1072 q 268 1058 278 1060 q 238 1057 258 1057 q 207 1058 217 1057 q 186 1067 197 1060 q 165 1115 165 1076 q 169 1167 165 1153 q 185 1188 174 1182 q 207 1196 197 1194 m 457 1196 q 462 1197 457 1196 q 488 1197 467 1197 q 518 1196 508 1197 q 539 1189 528 1194 q 560 1140 560 1178 q 556 1087 560 1101 q 540 1066 551 1072 q 518 1058 528 1060 q 488 1057 508 1057 q 457 1058 467 1057 q 436 1067 447 1060 q 415 1115 415 1076 q 419 1167 415 1153 q 435 1188 424 1182 q 457 1196 447 1194 z "},"Ì":{"ha":369,"x_min":39,"x_max":332,"o":"m 125 972 l 244 972 l 244 0 l 125 0 l 125 972 m 332 1063 l 300 1015 l 39 1158 l 103 1251 l 332 1063 z "},"Í":{"ha":369,"x_min":39,"x_max":332,"o":"m 125 972 l 244 972 l 244 0 l 125 0 l 125 972 m 71 1015 l 39 1063 l 268 1251 l 332 1158 l 71 1015 z "},"Î":{"ha":369,"x_min":0,"x_max":371,"o":"m 125 972 l 244 972 l 244 0 l 125 0 l 125 972 m 371 1076 l 328 1025 l 185 1118 l 42 1025 l 0 1076 l 185 1238 l 371 1076 z "},"Ï":{"ha":369,"x_min":-12,"x_max":382,"o":"m 125 972 l 244 972 l 244 0 l 125 0 l 125 972 m 29 1196 q 34 1197 29 1196 q 60 1197 39 1197 q 90 1196 81 1197 q 111 1189 100 1194 q 132 1140 132 1178 q 128 1087 132 1101 q 112 1066 124 1072 q 90 1058 100 1060 q 60 1057 81 1057 q 29 1058 39 1057 q 8 1067 19 1060 q -12 1115 -12 1076 q -8 1167 -12 1153 q 8 1188 -4 1182 q 29 1196 19 1194 m 279 1196 q 284 1197 279 1196 q 310 1197 289 1197 q 340 1196 331 1197 q 361 1189 350 1194 q 382 1140 382 1178 q 378 1087 382 1101 q 362 1066 374 1072 q 340 1058 350 1060 q 310 1057 331 1057 q 279 1058 289 1057 q 258 1067 269 1060 q 238 1115 238 1076 q 242 1167 238 1153 q 258 1188 246 1182 q 279 1196 269 1194 z "},"Ð":{"ha":815,"x_min":50,"x_max":711,"o":"m 50 446 l 50 529 l 125 529 l 125 972 l 403 972 q 597 942 515 972 q 653 895 632 929 q 686 833 674 861 q 703 742 699 806 q 711 494 711 639 q 708 289 711 349 q 691 158 706 229 q 643 61 676 86 q 403 0 561 0 l 125 0 l 125 446 l 50 446 m 404 872 l 244 872 l 244 529 l 439 529 l 439 446 l 244 446 l 244 103 l 404 103 q 550 135 500 103 q 589 222 585 157 q 590 285 590 243 l 590 690 q 589 752 590 732 q 578 800 588 772 q 550 840 569 828 q 404 872 500 872 z "},"Ñ":{"ha":829,"x_min":125,"x_max":704,"o":"m 125 972 l 300 972 l 579 161 l 588 161 l 588 972 l 704 972 l 704 0 l 529 0 l 250 811 l 242 811 l 242 0 l 125 0 l 125 972 m 601 1128 q 537 1075 561 1088 q 487 1063 513 1063 q 416 1081 461 1063 q 340 1100 371 1100 q 267 1072 310 1100 l 236 1125 q 301 1178 276 1165 q 351 1190 325 1190 q 422 1172 376 1190 q 497 1153 467 1153 q 571 1181 528 1153 l 601 1128 z "},"Ò":{"ha":824,"x_min":104,"x_max":719,"o":"m 606 16 q 589 9 606 16 q 524 -7 572 3 q 421 -17 476 -17 q 328 -13 365 -17 q 263 1 292 -10 q 211 21 233 11 q 172 54 189 31 q 143 94 154 78 q 124 149 132 111 q 113 212 117 186 q 107 292 108 238 q 104 490 104 397 q 106 631 104 583 q 112 744 107 678 q 129 840 117 811 q 163 905 142 868 q 217 956 183 942 q 404 989 306 989 q 560 969 503 989 q 651 921 618 949 q 699 818 685 893 q 717 682 714 743 q 719 503 719 621 q 718 339 719 386 q 712 225 717 292 q 694 130 707 158 q 661 65 682 101 q 606 16 640 29 m 599 268 l 599 704 q 575 839 599 815 q 499 883 540 876 q 413 890 458 890 q 333 885 367 890 q 280 865 300 879 q 248 839 260 851 q 231 800 236 826 q 225 704 225 767 l 225 268 q 247 133 225 157 q 325 89 283 96 q 413 82 367 82 q 491 88 458 82 q 544 107 524 93 q 576 133 564 121 q 592 172 588 146 q 599 268 599 206 m 558 1063 l 526 1015 l 265 1158 l 329 1251 l 558 1063 z "},"Ó":{"ha":824,"x_min":104,"x_max":719,"o":"m 606 16 q 589 9 606 16 q 524 -7 572 3 q 421 -17 476 -17 q 328 -13 365 -17 q 263 1 292 -10 q 211 21 233 11 q 172 54 189 31 q 143 94 154 78 q 124 149 132 111 q 113 212 117 186 q 107 292 108 238 q 104 490 104 397 q 106 631 104 583 q 112 744 107 678 q 129 840 117 811 q 163 905 142 868 q 217 956 183 942 q 404 989 306 989 q 560 969 503 989 q 651 921 618 949 q 699 818 685 893 q 717 682 714 743 q 719 503 719 621 q 718 339 719 386 q 712 225 717 292 q 694 130 707 158 q 661 65 682 101 q 606 16 640 29 m 599 268 l 599 704 q 575 839 599 815 q 499 883 540 876 q 413 890 458 890 q 333 885 367 890 q 280 865 300 879 q 248 839 260 851 q 231 800 236 826 q 225 704 225 767 l 225 268 q 247 133 225 157 q 325 89 283 96 q 413 82 367 82 q 491 88 458 82 q 544 107 524 93 q 576 133 564 121 q 592 172 588 146 q 599 268 599 206 m 311 1015 l 279 1063 l 508 1251 l 572 1158 l 311 1015 z "},"Ô":{"ha":824,"x_min":104,"x_max":719,"o":"m 606 16 q 589 9 606 16 q 524 -7 572 3 q 421 -17 476 -17 q 328 -13 365 -17 q 263 1 292 -10 q 211 21 233 11 q 172 54 189 31 q 143 94 154 78 q 124 149 132 111 q 113 212 117 186 q 107 292 108 238 q 104 490 104 397 q 106 631 104 583 q 112 744 107 678 q 129 840 117 811 q 163 905 142 868 q 217 956 183 942 q 404 989 306 989 q 560 969 503 989 q 651 921 618 949 q 699 818 685 893 q 717 682 714 743 q 719 503 719 621 q 718 339 719 386 q 712 225 717 292 q 694 130 707 158 q 661 65 682 101 q 606 16 640 29 m 599 268 l 599 704 q 575 839 599 815 q 499 883 540 876 q 413 890 458 890 q 333 885 367 890 q 280 865 300 879 q 248 839 260 851 q 231 800 236 826 q 225 704 225 767 l 225 268 q 247 133 225 157 q 325 89 283 96 q 413 82 367 82 q 491 88 458 82 q 544 107 524 93 q 576 133 564 121 q 592 172 588 146 q 599 268 599 206 m 597 1076 l 554 1025 l 411 1118 l 268 1025 l 226 1076 l 411 1238 l 597 1076 z "},"Õ":{"ha":824,"x_min":104,"x_max":719,"o":"m 606 16 q 589 9 606 16 q 524 -7 572 3 q 421 -17 476 -17 q 328 -13 365 -17 q 263 1 292 -10 q 211 21 233 11 q 172 54 189 31 q 143 94 154 78 q 124 149 132 111 q 113 212 117 186 q 107 292 108 238 q 104 490 104 397 q 106 631 104 583 q 112 744 107 678 q 129 840 117 811 q 163 905 142 868 q 217 956 183 942 q 404 989 306 989 q 560 969 503 989 q 651 921 618 949 q 699 818 685 893 q 717 682 714 743 q 719 503 719 621 q 718 339 719 386 q 712 225 717 292 q 694 130 707 158 q 661 65 682 101 q 606 16 640 29 m 599 268 l 599 704 q 575 839 599 815 q 499 883 540 876 q 413 890 458 890 q 333 885 367 890 q 280 865 300 879 q 248 839 260 851 q 231 800 236 826 q 225 704 225 767 l 225 268 q 247 133 225 157 q 325 89 283 96 q 413 82 367 82 q 491 88 458 82 q 544 107 524 93 q 576 133 564 121 q 592 172 588 146 q 599 268 599 206 m 594 1128 q 530 1075 554 1088 q 480 1063 506 1063 q 409 1081 454 1063 q 333 1100 364 1100 q 260 1072 303 1100 l 229 1125 q 294 1178 269 1165 q 344 1190 318 1190 q 415 1172 369 1190 q 490 1153 460 1153 q 564 1181 521 1153 l 594 1128 z "},"Ö":{"ha":824,"x_min":104,"x_max":719,"o":"m 606 16 q 589 9 606 16 q 524 -7 572 3 q 421 -17 476 -17 q 328 -13 365 -17 q 263 1 292 -10 q 211 21 233 11 q 172 54 189 31 q 143 94 154 78 q 124 149 132 111 q 113 212 117 186 q 107 292 108 238 q 104 490 104 397 q 106 631 104 583 q 112 744 107 678 q 129 840 117 811 q 163 905 142 868 q 217 956 183 942 q 404 989 306 989 q 560 969 503 989 q 651 921 618 949 q 699 818 685 893 q 717 682 714 743 q 719 503 719 621 q 718 339 719 386 q 712 225 717 292 q 694 130 707 158 q 661 65 682 101 q 606 16 640 29 m 599 268 l 599 704 q 575 839 599 815 q 499 883 540 876 q 413 890 458 890 q 333 885 367 890 q 280 865 300 879 q 248 839 260 851 q 231 800 236 826 q 225 704 225 767 l 225 268 q 247 133 225 157 q 325 89 283 96 q 413 82 367 82 q 491 88 458 82 q 544 107 524 93 q 576 133 564 121 q 592 172 588 146 q 599 268 599 206 m 256 1196 q 260 1197 256 1196 q 286 1197 265 1197 q 317 1196 307 1197 q 339 1189 326 1194 q 358 1140 358 1178 q 354 1087 358 1101 q 338 1066 350 1072 q 317 1058 326 1060 q 286 1057 307 1057 q 256 1058 265 1057 q 233 1067 246 1060 q 214 1115 214 1076 q 218 1167 214 1153 q 234 1188 222 1182 q 256 1196 246 1194 m 506 1196 q 510 1197 506 1196 q 536 1197 515 1197 q 567 1196 557 1197 q 589 1189 576 1194 q 608 1140 608 1178 q 604 1087 608 1101 q 588 1066 600 1072 q 567 1058 576 1060 q 536 1057 557 1057 q 506 1058 515 1057 q 483 1067 496 1060 q 464 1115 464 1076 q 468 1167 464 1153 q 484 1188 472 1182 q 506 1196 496 1194 z "},"×":{"ha":694,"x_min":97,"x_max":597,"o":"m 97 624 l 164 690 l 347 507 l 531 690 l 597 624 l 414 440 l 597 257 l 531 190 l 347 374 l 164 190 l 97 257 l 281 440 l 97 624 z "},"Ø":{"ha":824,"x_min":104,"x_max":719,"o":"m 104 408 q 104 495 104 408 q 106 631 104 583 q 112 744 107 678 q 129 840 117 811 q 163 905 142 868 q 217 956 183 942 q 411 989 306 989 q 489 985 453 989 l 501 1042 l 564 1042 l 549 975 q 646 922 615 957 q 676 881 664 900 q 697 826 689 863 q 710 762 706 789 q 717 682 714 735 q 719 490 719 594 q 718 339 719 386 q 712 225 717 292 q 694 130 707 158 q 661 65 682 101 q 606 17 640 29 q 411 -17 522 -17 q 333 -12 369 -17 l 321 -75 l 258 -75 l 274 -3 q 167 57 213 11 q 118 176 142 82 q 104 408 104 232 m 599 268 l 599 704 q 568 847 599 817 q 526 874 553 863 l 356 85 q 415 82 372 82 q 491 88 458 82 q 544 107 524 93 q 576 133 564 121 q 592 172 588 146 q 599 268 599 206 m 225 704 l 225 268 q 256 125 225 156 q 296 99 271 108 l 468 888 q 401 890 435 890 q 333 885 367 890 q 280 865 300 879 q 248 839 260 851 q 231 800 236 826 q 225 704 225 767 z "},"Ù":{"ha":849,"x_min":118,"x_max":731,"o":"m 611 268 l 611 972 l 731 972 l 731 485 q 706 131 731 188 q 673 66 694 103 q 618 16 651 29 q 537 -7 585 3 q 424 -17 489 -17 q 311 -7 358 -17 q 230 16 264 3 q 175 66 196 29 q 142 131 154 103 q 125 225 131 158 q 118 485 118 308 l 118 972 l 238 972 l 238 268 q 239 206 238 226 q 249 158 240 186 q 278 118 258 131 q 334 96 297 106 q 425 86 371 86 q 515 96 479 86 q 571 118 551 106 q 599 158 590 131 q 610 206 608 186 q 611 268 611 226 m 571 1063 l 539 1015 l 278 1158 l 342 1251 l 571 1063 z "},"Ú":{"ha":849,"x_min":118,"x_max":731,"o":"m 611 268 l 611 972 l 731 972 l 731 485 q 706 131 731 188 q 673 66 694 103 q 618 16 651 29 q 537 -7 585 3 q 424 -17 489 -17 q 311 -7 358 -17 q 230 16 264 3 q 175 66 196 29 q 142 131 154 103 q 125 225 131 158 q 118 485 118 308 l 118 972 l 238 972 l 238 268 q 239 206 238 226 q 249 158 240 186 q 278 118 258 131 q 334 96 297 106 q 425 86 371 86 q 515 96 479 86 q 571 118 551 106 q 599 158 590 131 q 610 206 608 186 q 611 268 611 226 m 351 1015 l 319 1063 l 549 1251 l 613 1158 l 351 1015 z "},"Û":{"ha":849,"x_min":118,"x_max":731,"o":"m 611 268 l 611 972 l 731 972 l 731 485 q 706 131 731 188 q 673 66 694 103 q 618 16 651 29 q 537 -7 585 3 q 424 -17 489 -17 q 311 -7 358 -17 q 230 16 264 3 q 175 66 196 29 q 142 131 154 103 q 125 225 131 158 q 118 485 118 308 l 118 972 l 238 972 l 238 268 q 239 206 238 226 q 249 158 240 186 q 278 118 258 131 q 334 96 297 106 q 425 86 371 86 q 515 96 479 86 q 571 118 551 106 q 599 158 590 131 q 610 206 608 186 q 611 268 611 226 m 610 1076 l 567 1025 l 424 1118 l 281 1025 l 239 1076 l 424 1238 l 610 1076 z "},"Ü":{"ha":849,"x_min":118,"x_max":731,"o":"m 611 268 l 611 972 l 731 972 l 731 485 q 706 131 731 188 q 673 66 694 103 q 618 16 651 29 q 537 -7 585 3 q 424 -17 489 -17 q 311 -7 358 -17 q 230 16 264 3 q 175 66 196 29 q 142 131 154 103 q 125 225 131 158 q 118 485 118 308 l 118 972 l 238 972 l 238 268 q 239 206 238 226 q 249 158 240 186 q 278 118 258 131 q 334 96 297 106 q 425 86 371 86 q 515 96 479 86 q 571 118 551 106 q 599 158 590 131 q 610 206 608 186 q 611 268 611 226 m 268 1196 q 273 1197 268 1196 q 299 1197 278 1197 q 329 1196 319 1197 q 350 1189 339 1194 q 371 1140 371 1178 q 367 1087 371 1101 q 351 1066 363 1072 q 329 1058 339 1060 q 299 1057 319 1057 q 268 1058 278 1057 q 247 1067 258 1060 q 226 1115 226 1076 q 231 1167 226 1153 q 247 1188 235 1182 q 268 1196 258 1194 m 518 1196 q 523 1197 518 1196 q 549 1197 528 1197 q 579 1196 569 1197 q 600 1189 589 1194 q 621 1140 621 1178 q 617 1087 621 1101 q 601 1066 613 1072 q 579 1058 589 1060 q 549 1057 569 1057 q 518 1058 528 1057 q 497 1067 508 1060 q 476 1115 476 1076 q 481 1167 476 1153 q 497 1188 485 1182 q 518 1196 508 1194 z "},"Ý":{"ha":664,"x_min":35,"x_max":629,"o":"m 388 0 l 276 0 l 276 313 l 35 972 l 157 972 l 328 443 l 336 443 l 507 972 l 629 972 l 388 313 l 388 0 m 244 1015 l 213 1063 l 442 1251 l 506 1158 l 244 1015 z "},"Þ":{"ha":713,"x_min":125,"x_max":643,"o":"m 125 972 l 244 972 l 244 800 l 335 800 q 572 729 501 800 q 643 486 643 658 q 572 243 643 314 q 335 172 501 172 l 244 172 l 244 0 l 125 0 l 125 972 m 522 453 l 522 519 q 521 581 522 561 q 510 629 519 601 q 482 669 501 657 q 336 701 432 701 l 244 701 l 244 271 l 336 271 q 482 303 432 271 q 521 392 517 325 q 522 453 522 411 z "},"ß":{"ha":822,"x_min":69,"x_max":736,"o":"m 349 94 q 469 74 407 74 q 558 81 531 74 q 598 115 585 89 q 613 167 611 142 q 615 238 615 193 q 615 299 615 283 q 611 344 614 315 q 600 392 608 374 q 578 431 592 410 q 490 475 553 469 l 349 489 l 349 569 l 460 569 q 556 606 536 569 q 569 635 564 622 q 575 676 574 647 q 578 778 578 735 q 575 838 578 821 q 560 876 572 854 q 515 906 547 897 q 429 914 483 914 q 343 906 375 914 q 298 876 311 897 q 282 838 285 854 q 279 786 279 821 l 279 0 l 165 0 l 165 640 l 69 640 l 69 701 l 165 721 q 176 844 167 797 q 213 933 186 892 q 431 1013 263 1013 q 647 939 592 1013 q 676 894 667 914 q 692 838 686 874 q 697 715 697 792 q 667 594 697 638 q 575 522 638 550 l 575 514 q 697 431 657 489 q 736 258 736 372 q 676 45 736 107 q 472 -17 615 -17 q 322 18 389 -17 l 349 94 z "},"à":{"ha":690,"x_min":97,"x_max":579,"o":"m 579 0 l 517 0 l 499 68 q 424 10 465 31 q 354 -13 382 -10 q 276 -17 326 -17 q 186 1 225 -17 q 128 56 147 19 q 97 213 97 114 q 169 375 97 338 q 222 397 199 389 q 291 410 244 406 q 370 415 338 414 q 465 417 403 415 l 465 521 q 435 619 465 593 q 324 644 404 644 q 149 614 243 644 l 126 683 q 356 736 235 736 q 542 678 500 736 q 572 611 564 646 q 579 521 579 576 l 579 0 m 465 194 l 465 338 q 297 327 324 338 q 249 306 269 317 q 211 229 211 286 l 211 197 q 232 101 211 129 q 331 74 253 74 q 438 105 410 74 q 465 194 465 136 m 492 861 l 460 814 l 199 957 l 263 1050 l 492 861 z "},"á":{"ha":690,"x_min":97,"x_max":579,"o":"m 579 0 l 517 0 l 499 68 q 424 10 465 31 q 354 -13 382 -10 q 276 -17 326 -17 q 186 1 225 -17 q 128 56 147 19 q 97 213 97 114 q 169 375 97 338 q 222 397 199 389 q 291 410 244 406 q 370 415 338 414 q 465 417 403 415 l 465 521 q 435 619 465 593 q 324 644 404 644 q 149 614 243 644 l 126 683 q 356 736 235 736 q 542 678 500 736 q 572 611 564 646 q 579 521 579 576 l 579 0 m 465 194 l 465 338 q 297 327 324 338 q 249 306 269 317 q 211 229 211 286 l 211 197 q 232 101 211 129 q 331 74 253 74 q 438 105 410 74 q 465 194 465 136 m 272 814 l 240 861 l 469 1050 l 533 957 l 272 814 z "},"â":{"ha":690,"x_min":97,"x_max":579,"o":"m 579 0 l 517 0 l 499 68 q 424 10 465 31 q 354 -13 382 -10 q 276 -17 326 -17 q 186 1 225 -17 q 128 56 147 19 q 97 213 97 114 q 169 375 97 338 q 222 397 199 389 q 291 410 244 406 q 370 415 338 414 q 465 417 403 415 l 465 521 q 435 619 465 593 q 324 644 404 644 q 149 614 243 644 l 126 683 q 356 736 235 736 q 542 678 500 736 q 572 611 564 646 q 579 521 579 576 l 579 0 m 465 194 l 465 338 q 297 327 324 338 q 249 306 269 317 q 211 229 211 286 l 211 197 q 232 101 211 129 q 331 74 253 74 q 438 105 410 74 q 465 194 465 136 m 544 889 l 501 838 l 358 931 l 215 838 l 174 889 l 358 1050 l 544 889 z "},"ã":{"ha":690,"x_min":97,"x_max":579,"o":"m 579 0 l 517 0 l 499 68 q 424 10 465 31 q 354 -13 382 -10 q 276 -17 326 -17 q 186 1 225 -17 q 128 56 147 19 q 97 213 97 114 q 169 375 97 338 q 222 397 199 389 q 291 410 244 406 q 370 415 338 414 q 465 417 403 415 l 465 521 q 435 619 465 593 q 324 644 404 644 q 149 614 243 644 l 126 683 q 356 736 235 736 q 542 678 500 736 q 572 611 564 646 q 579 521 579 576 l 579 0 m 465 194 l 465 338 q 297 327 324 338 q 249 306 269 317 q 211 229 211 286 l 211 197 q 232 101 211 129 q 331 74 253 74 q 438 105 410 74 q 465 194 465 136 m 556 940 q 491 888 515 900 q 441 875 467 875 q 370 894 415 875 q 294 913 325 913 q 221 885 264 913 l 190 938 q 255 990 231 978 q 305 1003 279 1003 q 376 984 331 1003 q 451 965 421 965 q 525 993 482 965 l 556 940 z "},"ä":{"ha":690,"x_min":97,"x_max":579,"o":"m 579 0 l 517 0 l 499 68 q 424 10 465 31 q 354 -13 382 -10 q 276 -17 326 -17 q 186 1 225 -17 q 128 56 147 19 q 97 213 97 114 q 169 375 97 338 q 222 397 199 389 q 291 410 244 406 q 370 415 338 414 q 465 417 403 415 l 465 521 q 435 619 465 593 q 324 644 404 644 q 149 614 243 644 l 126 683 q 356 736 235 736 q 542 678 500 736 q 572 611 564 646 q 579 521 579 576 l 579 0 m 465 194 l 465 338 q 297 327 324 338 q 249 306 269 317 q 211 229 211 286 l 211 197 q 232 101 211 129 q 331 74 253 74 q 438 105 410 74 q 465 194 465 136 m 203 994 q 208 995 203 994 q 233 996 213 996 q 264 994 254 996 q 286 986 274 993 q 306 938 306 976 q 301 885 306 900 q 285 865 297 871 q 264 857 274 858 q 233 856 254 856 q 203 857 213 856 q 181 864 193 858 q 161 913 161 875 q 165 966 161 951 q 181 987 169 981 q 203 994 193 993 m 453 994 q 458 995 453 994 q 483 996 463 996 q 514 994 504 996 q 536 986 524 993 q 556 938 556 976 q 551 885 556 900 q 535 865 547 871 q 514 857 524 858 q 483 856 504 856 q 453 857 463 856 q 431 864 443 858 q 411 913 411 875 q 415 966 411 951 q 431 987 419 981 q 453 994 443 993 z "},"å":{"ha":690,"x_min":97,"x_max":579,"o":"m 579 0 l 517 0 l 499 68 q 424 10 465 31 q 354 -13 382 -10 q 276 -17 326 -17 q 186 1 225 -17 q 128 56 147 19 q 97 213 97 114 q 169 375 97 338 q 222 397 199 389 q 291 410 244 406 q 370 415 338 414 q 465 417 403 415 l 465 521 q 435 619 465 593 q 324 644 404 644 q 149 614 243 644 l 126 683 q 356 736 235 736 q 542 678 500 736 q 572 611 564 646 q 579 521 579 576 l 579 0 m 465 194 l 465 338 q 297 327 324 338 q 249 306 269 317 q 211 229 211 286 l 211 197 q 232 101 211 129 q 331 74 253 74 q 438 105 410 74 q 465 194 465 136 m 406 980 q 400 984 406 980 q 372 989 394 989 q 338 980 350 989 q 326 940 326 971 q 338 901 326 910 q 368 892 349 892 q 396 894 388 892 q 418 935 418 900 q 406 980 418 971 m 281 1035 q 295 1046 281 1035 q 372 1057 310 1057 q 464 1035 435 1057 q 493 940 493 1013 q 464 846 493 868 q 372 824 435 824 q 281 846 310 824 q 251 940 251 868 q 281 1035 251 1013 z "},"æ":{"ha":1024,"x_min":97,"x_max":947,"o":"m 908 678 q 940 613 932 646 q 947 530 947 581 q 938 443 947 479 q 903 385 928 407 q 852 349 878 363 q 778 331 826 336 q 579 321 706 321 l 579 190 q 611 99 579 122 q 703 75 643 75 q 910 114 818 75 l 932 44 q 701 -17 828 -17 q 503 74 550 -17 q 294 -17 439 -17 q 137 40 176 -17 q 97 204 97 97 q 158 356 97 307 q 336 397 206 392 q 465 400 382 400 l 465 522 q 435 620 465 594 q 324 646 404 646 q 149 615 243 646 l 126 685 q 358 738 235 738 q 533 686 482 738 q 727 738 589 738 q 908 678 865 738 m 579 535 l 579 400 q 815 442 779 400 q 833 494 833 461 l 833 522 q 813 618 833 590 q 715 646 792 646 q 608 617 638 646 q 579 535 579 588 m 465 194 l 465 321 q 296 312 322 321 q 249 292 269 303 q 211 225 211 274 l 211 197 q 232 101 211 129 q 331 74 253 74 q 438 105 410 74 q 465 194 465 136 z "},"ç":{"ha":563,"x_min":104,"x_max":518,"o":"m 515 704 l 493 631 q 369 646 432 646 q 278 638 307 646 q 237 608 249 629 q 222 571 225 588 q 219 519 219 554 l 219 203 q 353 72 219 72 q 501 94 407 72 l 518 19 q 338 -17 439 -17 l 331 -78 l 347 -78 q 428 -101 407 -78 q 449 -168 449 -124 q 423 -241 449 -212 q 332 -269 397 -269 q 224 -246 267 -269 l 238 -197 q 308 -208 285 -208 q 344 -202 332 -208 q 357 -189 356 -196 q 358 -170 358 -182 q 357 -152 358 -158 q 346 -138 356 -146 q 318 -131 336 -131 l 290 -131 l 269 -97 l 281 -12 q 157 50 192 -1 q 126 103 138 78 q 111 178 115 128 q 104 322 104 240 l 104 428 q 110 533 104 501 q 121 594 115 565 q 136 637 126 622 q 159 671 146 651 q 191 700 172 690 q 233 719 210 710 q 355 738 271 738 q 515 704 439 738 z "},"è":{"ha":664,"x_min":104,"x_max":588,"o":"m 219 525 l 219 382 q 388 392 361 382 q 436 414 415 403 q 474 490 474 433 l 474 522 q 453 618 474 590 q 353 646 432 646 q 247 615 275 646 q 219 525 219 583 m 233 720 q 244 725 233 720 q 286 734 256 731 q 373 738 317 738 q 478 722 429 738 q 549 674 526 707 q 580 608 572 642 q 588 530 588 574 q 582 458 588 486 q 569 408 576 429 q 544 372 561 388 q 512 344 526 356 q 469 326 497 333 q 419 314 440 318 q 360 307 399 310 q 219 303 301 303 l 219 199 q 250 101 219 126 q 343 75 281 75 q 550 114 458 75 l 572 44 q 342 -17 468 -17 q 234 -2 275 -17 q 176 31 193 13 q 146 64 158 49 q 126 108 133 79 q 114 159 118 138 q 108 219 110 181 q 104 344 104 286 l 104 428 q 110 533 104 501 q 121 594 115 565 q 136 637 126 622 q 159 671 146 651 q 191 700 172 690 q 233 720 210 710 m 478 861 l 446 814 l 185 957 l 249 1050 l 478 861 z "},"é":{"ha":664,"x_min":104,"x_max":588,"o":"m 219 525 l 219 382 q 388 392 361 382 q 436 414 415 403 q 474 490 474 433 l 474 522 q 453 618 474 590 q 353 646 432 646 q 247 615 275 646 q 219 525 219 583 m 233 720 q 244 725 233 720 q 286 734 256 731 q 373 738 317 738 q 478 722 429 738 q 549 674 526 707 q 580 608 572 642 q 588 530 588 574 q 582 458 588 486 q 569 408 576 429 q 544 372 561 388 q 512 344 526 356 q 469 326 497 333 q 419 314 440 318 q 360 307 399 310 q 219 303 301 303 l 219 199 q 250 101 219 126 q 343 75 281 75 q 550 114 458 75 l 572 44 q 342 -17 468 -17 q 234 -2 275 -17 q 176 31 193 13 q 146 64 158 49 q 126 108 133 79 q 114 159 118 138 q 108 219 110 181 q 104 344 104 286 l 104 428 q 110 533 104 501 q 121 594 115 565 q 136 637 126 622 q 159 671 146 651 q 191 700 172 690 q 233 720 210 710 m 260 814 l 228 861 l 457 1050 l 521 957 l 260 814 z "},"ê":{"ha":664,"x_min":104,"x_max":588,"o":"m 219 525 l 219 382 q 388 392 361 382 q 436 414 415 403 q 474 490 474 433 l 474 522 q 453 618 474 590 q 353 646 432 646 q 247 615 275 646 q 219 525 219 583 m 233 720 q 244 725 233 720 q 286 734 256 731 q 373 738 317 738 q 478 722 429 738 q 549 674 526 707 q 580 608 572 642 q 588 530 588 574 q 582 458 588 486 q 569 408 576 429 q 544 372 561 388 q 512 344 526 356 q 469 326 497 333 q 419 314 440 318 q 360 307 399 310 q 219 303 301 303 l 219 199 q 250 101 219 126 q 343 75 281 75 q 550 114 458 75 l 572 44 q 342 -17 468 -17 q 234 -2 275 -17 q 176 31 193 13 q 146 64 158 49 q 126 108 133 79 q 114 159 118 138 q 108 219 110 181 q 104 344 104 286 l 104 428 q 110 533 104 501 q 121 594 115 565 q 136 637 126 622 q 159 671 146 651 q 191 700 172 690 q 233 720 210 710 m 546 889 l 503 838 l 360 931 l 217 838 l 175 889 l 360 1050 l 546 889 z "},"ë":{"ha":664,"x_min":104,"x_max":588,"o":"m 219 525 l 219 382 q 388 392 361 382 q 436 414 415 403 q 474 490 474 433 l 474 522 q 453 618 474 590 q 353 646 432 646 q 247 615 275 646 q 219 525 219 583 m 233 720 q 244 725 233 720 q 286 734 256 731 q 373 738 317 738 q 478 722 429 738 q 549 674 526 707 q 580 608 572 642 q 588 530 588 574 q 582 458 588 486 q 569 408 576 429 q 544 372 561 388 q 512 344 526 356 q 469 326 497 333 q 419 314 440 318 q 360 307 399 310 q 219 303 301 303 l 219 199 q 250 101 219 126 q 343 75 281 75 q 550 114 458 75 l 572 44 q 342 -17 468 -17 q 234 -2 275 -17 q 176 31 193 13 q 146 64 158 49 q 126 108 133 79 q 114 159 118 138 q 108 219 110 181 q 104 344 104 286 l 104 428 q 110 533 104 501 q 121 594 115 565 q 136 637 126 622 q 159 671 146 651 q 191 700 172 690 q 233 720 210 710 m 190 994 q 195 995 190 994 q 221 996 200 996 q 251 994 242 996 q 272 986 261 993 q 293 938 293 976 q 289 885 293 900 q 273 865 285 871 q 251 857 261 858 q 221 856 242 856 q 190 857 200 856 q 169 864 181 858 q 149 913 149 875 q 153 966 149 951 q 169 987 157 981 q 190 994 181 993 m 440 994 q 445 995 440 994 q 471 996 450 996 q 501 994 492 996 q 522 986 511 993 q 543 938 543 976 q 539 885 543 900 q 523 865 535 871 q 501 857 511 858 q 471 856 492 856 q 440 857 450 856 q 419 864 431 858 q 399 913 399 875 q 403 966 399 951 q 419 987 407 981 q 440 994 431 993 z "},"ì":{"ha":364,"x_min":36,"x_max":329,"o":"m 329 861 l 297 814 l 36 957 l 100 1050 l 329 861 m 125 722 l 239 722 l 239 0 l 125 0 l 125 722 z "},"í":{"ha":364,"x_min":50,"x_max":343,"o":"m 82 814 l 50 861 l 279 1050 l 343 957 l 82 814 m 125 722 l 239 722 l 239 0 l 125 0 l 125 722 z "},"î":{"ha":364,"x_min":-3,"x_max":368,"o":"m 368 889 l 325 838 l 182 931 l 39 838 l -3 889 l 182 1050 l 368 889 m 125 722 l 239 722 l 239 0 l 125 0 l 125 722 z "},"ï":{"ha":364,"x_min":-15,"x_max":379,"o":"m 26 994 q 31 995 26 994 q 57 996 36 996 q 88 994 78 996 q 108 986 97 993 q 129 938 129 976 q 125 885 129 900 q 109 865 121 871 q 88 857 97 858 q 57 856 78 856 q 26 857 36 856 q 6 864 17 858 q -15 913 -15 875 q -11 966 -15 951 q 5 987 -7 981 q 26 994 17 993 m 276 994 q 281 995 276 994 q 307 996 286 996 q 338 994 328 996 q 358 986 347 993 q 379 938 379 976 q 375 885 379 900 q 359 865 371 871 q 338 857 347 858 q 307 856 328 856 q 276 857 286 856 q 256 864 267 858 q 235 913 235 875 q 239 966 235 951 q 255 987 243 981 q 276 994 267 993 m 125 722 l 239 722 l 239 0 l 125 0 l 125 722 z "},"ð":{"ha":713,"x_min":104,"x_max":693,"o":"m 608 628 l 608 264 q 601 159 608 190 q 586 99 594 128 q 565 58 578 71 q 533 27 553 44 q 489 2 514 10 q 431 -11 464 -6 q 356 -17 397 -17 q 281 -11 314 -17 q 222 2 247 -6 q 178 27 197 10 q 147 58 160 44 q 126 99 135 71 q 114 147 118 128 q 107 203 110 165 q 104 264 104 242 l 104 396 q 109 497 104 474 q 120 549 114 521 q 135 589 126 576 q 158 620 144 601 q 190 648 172 639 q 233 667 208 657 q 358 682 275 682 q 496 660 440 682 q 472 807 493 749 l 347 743 l 306 824 l 425 885 q 288 975 376 942 l 325 1057 q 518 932 454 1007 l 651 1000 l 693 919 l 567 854 q 608 628 608 764 m 490 201 l 490 464 q 488 515 490 499 q 474 553 485 532 q 433 583 463 575 q 356 592 404 592 q 277 583 307 592 q 236 553 247 575 q 222 515 225 532 q 219 464 219 499 l 219 201 q 222 150 219 167 q 236 112 225 133 q 277 82 247 90 q 356 74 307 74 q 433 82 404 74 q 474 112 463 90 q 488 150 485 133 q 490 201 490 167 z "},"ñ":{"ha":718,"x_min":125,"x_max":607,"o":"m 607 508 l 607 0 l 493 0 l 493 524 q 472 619 493 592 q 373 647 451 647 q 267 616 294 647 q 239 526 239 585 l 239 0 l 125 0 l 125 722 l 188 722 l 206 654 q 275 712 232 692 q 347 735 318 732 q 427 738 375 738 q 518 719 479 738 q 575 667 557 701 q 607 508 607 607 m 556 940 q 491 888 515 900 q 441 875 467 875 q 370 894 415 875 q 294 913 325 913 q 221 885 264 913 l 190 938 q 255 990 231 978 q 305 1003 279 1003 q 376 984 331 1003 q 451 965 421 965 q 525 993 482 965 l 556 940 z "},"ò":{"ha":713,"x_min":104,"x_max":608,"o":"m 431 -10 q 414 -14 431 -10 q 356 -17 397 -17 q 281 -10 314 -17 q 222 3 247 -4 q 178 30 197 11 q 147 63 160 49 q 126 108 135 78 q 114 159 118 139 q 107 221 110 179 q 104 286 104 263 l 104 436 q 111 549 104 517 q 126 613 118 582 q 147 658 135 643 q 178 691 160 672 q 222 717 197 710 q 281 731 247 725 q 356 738 314 738 q 431 731 397 738 q 489 717 464 725 q 533 691 514 710 q 565 658 553 672 q 586 613 578 643 q 599 563 594 582 q 606 501 603 543 q 608 436 608 460 q 608 286 608 436 q 601 172 608 206 q 586 108 594 139 q 565 63 578 78 q 533 30 553 49 q 489 3 514 11 q 431 -10 464 -4 m 490 201 l 490 519 q 488 571 490 554 q 474 609 485 588 q 433 639 463 631 q 356 647 404 647 q 277 639 307 647 q 236 609 247 631 q 222 571 225 588 q 219 519 219 554 l 219 201 q 222 150 219 167 q 236 112 225 133 q 277 82 247 90 q 356 74 307 74 q 433 82 404 74 q 474 112 463 90 q 488 150 485 133 q 490 201 490 167 m 503 861 l 471 814 l 210 957 l 274 1050 l 503 861 z "},"ó":{"ha":713,"x_min":104,"x_max":608,"o":"m 431 -10 q 414 -14 431 -10 q 356 -17 397 -17 q 281 -10 314 -17 q 222 3 247 -4 q 178 30 197 11 q 147 63 160 49 q 126 108 135 78 q 114 159 118 139 q 107 221 110 179 q 104 286 104 263 l 104 436 q 111 549 104 517 q 126 613 118 582 q 147 658 135 643 q 178 691 160 672 q 222 717 197 710 q 281 731 247 725 q 356 738 314 738 q 431 731 397 738 q 489 717 464 725 q 533 691 514 710 q 565 658 553 672 q 586 613 578 643 q 599 563 594 582 q 606 501 603 543 q 608 436 608 460 q 608 286 608 436 q 601 172 608 206 q 586 108 594 139 q 565 63 578 78 q 533 30 553 49 q 489 3 514 11 q 431 -10 464 -4 m 490 201 l 490 519 q 488 571 490 554 q 474 609 485 588 q 433 639 463 631 q 356 647 404 647 q 277 639 307 647 q 236 609 247 631 q 222 571 225 588 q 219 519 219 554 l 219 201 q 222 150 219 167 q 236 112 225 133 q 277 82 247 90 q 356 74 307 74 q 433 82 404 74 q 474 112 463 90 q 488 150 485 133 q 490 201 490 167 m 269 814 l 238 861 l 467 1050 l 531 957 l 269 814 z "},"ô":{"ha":713,"x_min":104,"x_max":608,"o":"m 431 -10 q 414 -14 431 -10 q 356 -17 397 -17 q 281 -10 314 -17 q 222 3 247 -4 q 178 30 197 11 q 147 63 160 49 q 126 108 135 78 q 114 159 118 139 q 107 221 110 179 q 104 286 104 263 l 104 436 q 111 549 104 517 q 126 613 118 582 q 147 658 135 643 q 178 691 160 672 q 222 717 197 710 q 281 731 247 725 q 356 738 314 738 q 431 731 397 738 q 489 717 464 725 q 533 691 514 710 q 565 658 553 672 q 586 613 578 643 q 599 563 594 582 q 606 501 603 543 q 608 436 608 460 q 608 286 608 436 q 601 172 608 206 q 586 108 594 139 q 565 63 578 78 q 533 30 553 49 q 489 3 514 11 q 431 -10 464 -4 m 490 201 l 490 519 q 488 571 490 554 q 474 609 485 588 q 433 639 463 631 q 356 647 404 647 q 277 639 307 647 q 236 609 247 631 q 222 571 225 588 q 219 519 219 554 l 219 201 q 222 150 219 167 q 236 112 225 133 q 277 82 247 90 q 356 74 307 74 q 433 82 404 74 q 474 112 463 90 q 488 150 485 133 q 490 201 490 167 m 542 889 l 499 838 l 356 931 l 213 838 l 171 889 l 356 1050 l 542 889 z "},"õ":{"ha":713,"x_min":104,"x_max":608,"o":"m 431 -10 q 414 -14 431 -10 q 356 -17 397 -17 q 281 -10 314 -17 q 222 3 247 -4 q 178 30 197 11 q 147 63 160 49 q 126 108 135 78 q 114 159 118 139 q 107 221 110 179 q 104 286 104 263 l 104 436 q 111 549 104 517 q 126 613 118 582 q 147 658 135 643 q 178 691 160 672 q 222 717 197 710 q 281 731 247 725 q 356 738 314 738 q 431 731 397 738 q 489 717 464 725 q 533 691 514 710 q 565 658 553 672 q 586 613 578 643 q 599 563 594 582 q 606 501 603 543 q 608 436 608 460 q 608 286 608 436 q 601 172 608 206 q 586 108 594 139 q 565 63 578 78 q 533 30 553 49 q 489 3 514 11 q 431 -10 464 -4 m 490 201 l 490 519 q 488 571 490 554 q 474 609 485 588 q 433 639 463 631 q 356 647 404 647 q 277 639 307 647 q 236 609 247 631 q 222 571 225 588 q 219 519 219 554 l 219 201 q 222 150 219 167 q 236 112 225 133 q 277 82 247 90 q 356 74 307 74 q 433 82 404 74 q 474 112 463 90 q 488 150 485 133 q 490 201 490 167 m 539 940 q 474 888 499 900 q 424 875 450 875 q 353 894 399 875 q 278 913 308 913 q 204 885 247 913 l 174 938 q 238 990 214 978 q 288 1003 263 1003 q 359 984 314 1003 q 435 965 404 965 q 508 993 465 965 l 539 940 z "},"ö":{"ha":713,"x_min":104,"x_max":608,"o":"m 431 -10 q 414 -14 431 -10 q 356 -17 397 -17 q 281 -10 314 -17 q 222 3 247 -4 q 178 30 197 11 q 147 63 160 49 q 126 108 135 78 q 114 159 118 139 q 107 221 110 179 q 104 286 104 263 l 104 436 q 111 549 104 517 q 126 613 118 582 q 147 658 135 643 q 178 691 160 672 q 222 717 197 710 q 281 731 247 725 q 356 738 314 738 q 431 731 397 738 q 489 717 464 725 q 533 691 514 710 q 565 658 553 672 q 586 613 578 643 q 599 563 594 582 q 606 501 603 543 q 608 436 608 460 q 608 286 608 436 q 601 172 608 206 q 586 108 594 139 q 565 63 578 78 q 533 30 553 49 q 489 3 514 11 q 431 -10 464 -4 m 490 201 l 490 519 q 488 571 490 554 q 474 609 485 588 q 433 639 463 631 q 356 647 404 647 q 277 639 307 647 q 236 609 247 631 q 222 571 225 588 q 219 519 219 554 l 219 201 q 222 150 219 167 q 236 112 225 133 q 277 82 247 90 q 356 74 307 74 q 433 82 404 74 q 474 112 463 90 q 488 150 485 133 q 490 201 490 167 m 200 994 q 205 995 200 994 q 231 996 210 996 q 261 994 251 996 q 283 986 271 993 q 303 938 303 976 q 299 885 303 900 q 283 865 294 871 q 261 857 271 858 q 231 856 251 856 q 200 857 210 856 q 178 864 190 858 q 158 913 158 875 q 163 966 158 951 q 178 987 167 981 q 200 994 190 993 m 450 994 q 455 995 450 994 q 481 996 460 996 q 511 994 501 996 q 533 986 521 993 q 553 938 553 976 q 549 885 553 900 q 533 865 544 871 q 511 857 521 858 q 481 856 501 856 q 450 857 460 856 q 428 864 440 858 q 408 913 408 875 q 413 966 408 951 q 428 987 417 981 q 450 994 440 993 z "},"÷":{"ha":694,"x_min":83,"x_max":611,"o":"m 315 265 q 320 266 315 265 q 349 267 325 267 q 383 265 372 267 q 406 257 393 264 q 423 234 418 250 q 428 190 428 218 q 423 146 428 163 q 406 122 418 129 q 383 114 393 115 q 349 113 372 113 q 315 114 325 113 q 292 122 304 115 q 274 146 279 129 q 269 190 269 163 q 274 234 269 218 q 292 257 279 250 q 315 265 304 264 m 315 767 q 320 767 315 767 q 349 768 325 768 q 383 767 372 768 q 406 758 393 765 q 423 735 418 751 q 428 692 428 719 q 423 647 428 664 q 406 624 418 631 q 383 615 393 617 q 349 614 372 614 q 315 615 325 614 q 292 624 304 617 q 274 647 279 631 q 269 692 269 664 q 274 735 269 719 q 292 758 279 751 q 315 767 304 765 m 83 392 l 83 489 l 611 489 l 611 392 l 83 392 z "},"ø":{"ha":713,"x_min":104,"x_max":608,"o":"m 104 350 l 104 436 q 111 549 104 517 q 126 613 118 582 q 147 658 135 643 q 178 691 160 672 q 222 717 197 710 q 340 738 288 738 q 421 733 392 738 l 446 826 l 508 826 l 481 719 q 600 553 585 685 q 608 400 608 490 l 608 286 q 601 172 608 206 q 586 108 594 139 q 565 63 578 78 q 533 30 553 49 q 489 3 514 11 q 289 -12 389 -26 l 265 -104 l 203 -104 l 231 1 q 111 169 128 36 q 104 350 104 232 m 219 519 l 219 201 q 228 126 219 149 q 254 93 238 104 l 399 644 q 340 647 374 647 q 277 639 307 647 q 236 609 247 631 q 222 571 225 588 q 219 519 219 554 m 490 201 l 490 519 q 481 594 490 572 q 456 626 472 615 l 311 75 q 364 74 324 74 q 433 82 404 74 q 474 112 463 90 q 488 150 485 133 q 490 201 490 167 z "},"ù":{"ha":718,"x_min":111,"x_max":593,"o":"m 111 213 l 111 722 l 225 722 l 225 197 q 246 101 225 129 q 345 74 267 74 q 451 105 424 74 q 479 194 479 136 l 479 722 l 593 722 l 593 0 l 531 0 l 513 68 q 444 10 486 31 q 372 -13 401 -10 q 290 -17 342 -17 q 200 1 239 -17 q 142 56 161 19 q 111 213 111 114 m 506 861 l 474 814 l 213 957 l 276 1050 l 506 861 z "},"ú":{"ha":718,"x_min":111,"x_max":593,"o":"m 111 213 l 111 722 l 225 722 l 225 197 q 246 101 225 129 q 345 74 267 74 q 451 105 424 74 q 479 194 479 136 l 479 722 l 593 722 l 593 0 l 531 0 l 513 68 q 444 10 486 31 q 372 -13 401 -10 q 290 -17 342 -17 q 200 1 239 -17 q 142 56 161 19 q 111 213 111 114 m 272 814 l 240 861 l 469 1050 l 533 957 l 272 814 z "},"û":{"ha":718,"x_min":111,"x_max":593,"o":"m 111 213 l 111 722 l 225 722 l 225 197 q 246 101 225 129 q 345 74 267 74 q 451 105 424 74 q 479 194 479 136 l 479 722 l 593 722 l 593 0 l 531 0 l 513 68 q 444 10 486 31 q 372 -13 401 -10 q 290 -17 342 -17 q 200 1 239 -17 q 142 56 161 19 q 111 213 111 114 m 544 889 l 501 838 l 358 931 l 215 838 l 174 889 l 358 1050 l 544 889 z "},"ü":{"ha":718,"x_min":111,"x_max":593,"o":"m 111 213 l 111 722 l 225 722 l 225 197 q 246 101 225 129 q 345 74 267 74 q 451 105 424 74 q 479 194 479 136 l 479 722 l 593 722 l 593 0 l 531 0 l 513 68 q 444 10 486 31 q 372 -13 401 -10 q 290 -17 342 -17 q 200 1 239 -17 q 142 56 161 19 q 111 213 111 114 m 203 994 q 208 995 203 994 q 233 996 213 996 q 264 994 254 996 q 286 986 274 993 q 306 938 306 976 q 301 885 306 900 q 285 865 297 871 q 264 857 274 858 q 233 856 254 856 q 203 857 213 856 q 181 864 193 858 q 161 913 161 875 q 165 966 161 951 q 181 987 169 981 q 203 994 193 993 m 453 994 q 458 995 453 994 q 483 996 463 996 q 514 994 504 996 q 536 986 524 993 q 556 938 556 976 q 551 885 556 900 q 535 865 547 871 q 514 857 524 858 q 483 856 504 856 q 453 857 463 856 q 431 864 443 858 q 411 913 411 875 q 415 966 411 951 q 431 987 419 981 q 453 994 443 993 z "},"ý":{"ha":631,"x_min":54,"x_max":575,"o":"m 79 -169 q 161 -178 117 -178 q 238 -153 206 -178 q 286 -67 271 -129 l 301 0 l 224 0 l 56 722 l 168 722 l 311 75 l 319 75 l 463 722 l 575 722 l 392 -62 q 316 -217 368 -164 q 150 -269 264 -269 q 54 -250 97 -269 l 79 -169 m 229 814 l 197 861 l 426 1050 l 490 957 l 229 814 z "},"þ":{"ha":714,"x_min":125,"x_max":610,"o":"m 125 1000 l 232 1000 l 232 668 q 414 722 290 722 q 574 651 538 722 q 610 394 610 579 q 604 197 610 233 q 593 130 599 160 q 578 84 588 100 q 556 49 569 68 q 526 19 543 29 q 486 0 508 10 q 231 -1 404 -35 l 231 -251 l 126 -251 q 125 1000 125 22 m 239 513 l 239 89 q 381 74 315 74 q 470 100 447 74 q 493 204 493 126 l 493 510 q 472 606 493 578 q 373 633 451 633 q 267 602 294 633 q 239 513 239 571 z "},"ÿ":{"ha":631,"x_min":54,"x_max":575,"o":"m 79 -169 q 161 -178 117 -178 q 238 -153 206 -178 q 286 -67 271 -129 l 301 0 l 224 0 l 56 722 l 168 722 l 311 75 l 319 75 l 463 722 l 575 722 l 392 -62 q 316 -217 368 -164 q 150 -269 264 -269 q 54 -250 97 -269 l 79 -169 m 160 994 q 165 995 160 994 q 190 996 169 996 q 221 994 211 996 q 242 986 231 993 q 263 938 263 976 q 258 885 263 900 q 242 865 254 871 q 221 857 231 858 q 190 856 211 856 q 160 857 169 856 q 139 864 150 858 q 118 913 118 875 q 122 966 118 951 q 138 987 126 981 q 160 994 150 993 m 410 994 q 415 995 410 994 q 440 996 419 996 q 471 994 461 996 q 492 986 481 993 q 513 938 513 976 q 508 885 513 900 q 492 865 504 871 q 471 857 481 858 q 440 856 461 856 q 410 857 419 856 q 389 864 400 858 q 368 913 368 875 q 372 966 368 951 q 388 987 376 981 q 410 994 400 993 z "},"ı":{"ha":364,"x_min":125,"x_max":239,"o":"m 125 722 l 239 722 l 239 0 l 125 0 l 125 722 z "},"Ł":{"ha":586,"x_min":-8,"x_max":558,"o":"m 125 972 l 244 972 l 244 550 l 338 597 l 379 517 l 244 447 l 244 97 l 558 97 l 558 0 l 125 0 l 125 386 l 33 340 l -8 421 l 125 489 l 125 972 z "},"ł":{"ha":364,"x_min":-11,"x_max":376,"o":"m 125 1000 l 239 1000 l 239 688 l 335 736 l 376 656 l 239 585 l 239 0 l 125 0 l 125 526 l 31 479 l -11 560 l 125 629 l 125 1000 z "},"Œ":{"ha":1131,"x_min":104,"x_max":1075,"o":"m 1075 0 l 411 0 q 217 31 303 0 q 163 76 183 42 q 129 137 142 110 q 111 228 117 164 q 104 465 104 331 q 106 651 104 599 q 116 773 107 704 q 143 869 125 842 q 196 926 161 896 q 283 964 231 956 q 411 972 335 972 l 1061 972 l 1047 875 l 675 875 q 710 752 701 828 q 719 536 718 676 l 1019 536 l 1019 439 l 719 439 q 710 219 718 293 q 676 97 703 144 l 1075 97 l 1075 0 m 599 285 l 599 688 q 575 822 599 799 q 499 867 540 860 q 413 874 458 874 q 333 868 367 874 q 280 849 300 863 q 248 822 260 835 q 231 783 236 810 q 225 688 225 750 l 225 285 q 247 150 225 174 q 325 106 283 113 q 413 99 367 99 q 491 104 458 99 q 544 124 524 110 q 576 150 564 138 q 592 189 588 163 q 599 285 599 222 z "},"œ":{"ha":1053,"x_min":104,"x_max":976,"o":"m 939 675 q 969 608 961 642 q 976 530 976 574 q 971 458 976 486 q 958 408 965 429 q 933 372 950 388 q 901 344 915 356 q 858 326 886 333 q 808 314 829 318 q 749 307 788 310 q 608 303 690 303 l 608 199 q 639 101 608 126 q 732 75 669 75 q 939 114 847 75 l 961 44 q 729 -17 857 -17 q 549 44 601 -17 q 356 -17 494 -17 q 242 -3 288 -17 q 178 30 197 11 q 147 63 160 49 q 126 108 135 78 q 114 159 118 139 q 107 221 110 179 q 104 286 104 263 l 104 436 q 111 549 104 517 q 126 613 118 582 q 147 658 135 643 q 178 691 160 672 q 222 717 197 710 q 356 738 288 738 q 550 675 494 738 q 750 738 606 738 q 939 675 894 738 m 490 201 l 490 519 q 488 571 490 554 q 474 609 485 588 q 433 639 463 631 q 356 647 404 647 q 277 639 307 647 q 236 609 247 631 q 222 571 225 588 q 219 519 219 554 l 219 201 q 222 150 219 167 q 236 112 225 133 q 277 82 247 90 q 356 74 307 74 q 433 82 404 74 q 474 112 463 90 q 488 150 485 133 q 490 201 490 167 m 608 525 l 608 382 q 777 392 750 382 q 825 414 804 403 q 863 490 863 433 l 863 522 q 842 618 863 590 q 742 646 821 646 q 636 615 664 646 q 608 525 608 583 z "},"Š":{"ha":681,"x_min":76,"x_max":604,"o":"m 604 265 q 604 200 604 265 q 542 59 604 135 q 337 -17 479 -17 q 76 35 194 -17 l 101 121 q 329 82 213 82 q 449 122 411 82 q 488 246 488 163 q 467 372 488 329 q 379 425 446 415 l 242 444 q 112 524 144 460 q 79 717 79 588 q 147 917 79 846 q 333 989 214 989 q 571 944 451 989 l 546 861 q 358 890 442 890 q 235 856 274 890 q 196 729 196 822 q 216 596 196 636 q 297 547 236 556 l 428 528 q 560 455 517 514 q 604 265 604 396 m 154 1174 l 197 1225 l 340 1132 l 483 1225 l 525 1174 l 340 1013 l 154 1174 z "},"š":{"ha":619,"x_min":83,"x_max":536,"o":"m 390 403 q 501 347 465 393 q 536 201 536 301 q 483 42 536 100 q 303 -17 429 -17 q 83 29 178 -17 l 106 99 q 299 75 231 75 q 396 102 367 75 q 425 184 425 129 q 409 267 425 239 q 343 301 393 294 l 231 317 q 119 378 149 328 q 90 525 90 429 q 147 679 90 621 q 300 738 203 738 q 515 692 428 738 l 494 614 q 320 640 382 640 q 230 619 258 640 q 201 536 201 599 q 214 450 201 474 q 278 418 226 426 l 390 403 m 124 986 l 167 1038 l 310 944 l 453 1038 l 494 986 l 310 825 l 124 986 z "},"Ÿ":{"ha":664,"x_min":35,"x_max":629,"o":"m 388 0 l 276 0 l 276 313 l 35 972 l 157 972 l 328 443 l 336 443 l 507 972 l 629 972 l 388 313 l 388 0 m 426 1196 q 431 1197 426 1196 q 457 1197 436 1197 q 488 1196 478 1197 q 508 1189 497 1194 q 529 1140 529 1178 q 525 1087 529 1101 q 509 1066 521 1072 q 488 1058 497 1060 q 457 1057 478 1057 q 426 1058 436 1057 q 406 1067 417 1060 q 385 1115 385 1076 q 389 1167 385 1153 q 405 1188 393 1182 q 426 1196 417 1194 m 176 1196 q 181 1197 176 1196 q 207 1197 186 1197 q 238 1196 228 1197 q 258 1189 247 1194 q 279 1140 279 1178 q 275 1087 279 1101 q 259 1066 271 1072 q 238 1058 247 1060 q 207 1057 228 1057 q 176 1058 186 1057 q 156 1067 167 1060 q 135 1115 135 1076 q 139 1167 135 1153 q 155 1188 143 1182 q 176 1196 167 1194 z "},"Ž":{"ha":676,"x_min":56,"x_max":621,"o":"m 83 875 l 83 972 l 621 972 l 621 890 l 185 97 l 614 97 l 614 0 l 56 0 l 56 82 l 493 875 l 83 875 m 153 1174 l 196 1225 l 339 1132 l 482 1225 l 524 1174 l 339 1013 l 153 1174 z "},"ž":{"ha":629,"x_min":83,"x_max":546,"o":"m 97 632 l 97 722 l 539 722 l 539 647 l 214 90 l 546 90 l 546 0 l 83 0 l 83 75 l 411 632 l 97 632 m 129 986 l 172 1038 l 315 944 l 458 1038 l 500 986 l 315 825 l 129 986 z "},"ƒ":{"ha":694,"x_min":92,"x_max":644,"o":"m 122 400 l 122 483 l 283 483 q 267 679 267 626 q 331 851 267 788 q 519 914 394 914 q 644 894 589 914 l 619 811 q 501 818 553 818 q 413 788 449 818 q 378 675 378 758 q 394 483 378 624 l 589 483 l 589 400 l 404 400 q 436 90 436 136 q 372 -81 436 -18 q 183 -143 308 -143 q 92 -125 149 -143 l 117 -40 q 186 -47 158 -47 q 290 -18 254 -47 q 325 94 325 11 q 293 400 325 136 l 122 400 z "},"ˆ":{"ha":597,"x_min":114,"x_max":485,"o":"m 485 889 l 442 838 l 299 931 l 156 838 l 114 889 l 299 1050 l 485 889 z "},"ˇ":{"ha":597,"x_min":114,"x_max":485,"o":"m 114 986 l 157 1038 l 300 944 l 443 1038 l 485 986 l 300 825 l 114 986 z "},"ˉ":{"ha":556,"x_min":111,"x_max":444,"o":"m 111 882 l 111 969 l 444 969 l 444 882 l 111 882 z "},"˘":{"ha":597,"x_min":119,"x_max":478,"o":"m 391 843 q 374 832 391 843 q 299 821 357 821 q 206 843 240 821 q 149 914 172 865 l 119 975 l 182 1006 q 206 962 197 975 q 240 933 215 949 q 299 918 264 918 q 358 933 333 918 q 391 962 382 949 q 415 1006 400 975 l 478 975 l 449 914 q 391 843 425 865 z "},"˙":{"ha":353,"x_min":97,"x_max":256,"o":"m 142 1015 q 148 1016 142 1015 q 176 1017 153 1017 q 210 1015 200 1017 q 233 1007 221 1014 q 251 984 246 1000 q 256 940 256 968 q 251 896 256 913 q 233 872 246 879 q 210 864 221 865 q 176 863 200 863 q 142 864 153 863 q 119 872 132 865 q 102 896 107 879 q 97 940 97 913 q 102 984 97 968 q 119 1007 107 1000 q 142 1015 132 1014 z "},"˚":{"ha":597,"x_min":178,"x_max":419,"o":"m 333 980 q 327 984 333 980 q 299 989 321 989 q 265 980 276 989 q 253 940 253 971 q 264 901 253 910 q 294 892 275 892 q 322 894 314 892 q 344 935 344 900 q 333 980 344 971 m 207 1035 q 222 1046 207 1035 q 299 1057 236 1057 q 390 1035 361 1057 q 419 940 419 1013 q 390 846 419 868 q 299 824 361 824 q 207 846 236 824 q 178 940 178 868 q 207 1035 178 1013 z "},"˛":{"ha":0,"x_min":0,"x_max":0,"o":""},"˜":{"ha":622,"x_min":138,"x_max":503,"o":"m 503 940 q 438 888 463 900 q 388 875 414 875 q 317 894 363 875 q 242 913 272 913 q 168 885 211 913 l 138 938 q 202 990 178 978 q 252 1003 226 1003 q 323 984 278 1003 q 399 965 368 965 q 472 993 429 965 l 503 940 z "},"˝":{"ha":597,"x_min":49,"x_max":597,"o":"m 86 814 l 49 860 l 250 1049 l 319 957 l 86 814 m 364 814 l 326 860 l 528 1049 l 597 957 l 364 814 z "},"π":{"ha":767,"x_min":56,"x_max":760,"o":"m 56 625 l 56 722 l 711 722 l 711 625 l 628 625 l 628 174 q 640 89 628 114 q 688 64 653 64 q 750 69 722 64 l 760 0 q 665 -17 710 -17 q 591 -7 619 -17 q 547 17 563 3 q 525 58 532 31 q 514 174 514 96 l 514 625 l 253 625 l 253 0 l 139 0 l 139 625 l 56 625 z "},"–":{"ha":822,"x_min":0,"x_max":822,"o":"m 0 371 l 0 461 l 822 461 l 822 371 l 0 371 z "},"—":{"ha":1008,"x_min":0,"x_max":1008,"o":"m 0 371 l 0 461 l 1008 461 l 1008 371 l 0 371 z "},"‘":{"ha":257,"x_min":42,"x_max":225,"o":"m 128 722 q 113 722 128 722 q 87 724 97 722 q 64 732 76 725 q 42 799 42 744 q 88 931 42 857 l 163 1049 l 225 1015 l 168 872 q 200 799 200 861 q 178 732 200 744 q 128 722 160 722 z "},"’":{"ha":257,"x_min":32,"x_max":215,"o":"m 128 1019 q 144 1019 128 1019 q 170 1018 160 1019 q 193 1010 181 1017 q 215 943 215 997 q 169 811 215 885 l 94 693 l 32 726 l 89 869 q 57 943 57 881 q 79 1010 57 997 q 128 1019 97 1019 z "},"‚":{"ha":333,"x_min":64,"x_max":247,"o":"m 160 138 q 176 138 160 138 q 202 136 192 138 q 225 128 213 135 q 247 61 247 115 q 201 -71 247 3 l 126 -189 l 64 -156 l 121 -12 q 89 61 89 -1 q 111 128 89 115 q 160 138 129 138 z "},"“":{"ha":493,"x_min":42,"x_max":461,"o":"m 128 722 q 113 722 128 722 q 87 724 97 722 q 64 732 76 725 q 42 799 42 744 q 88 931 42 857 l 163 1049 l 225 1015 l 168 872 q 200 799 200 861 q 178 732 200 744 q 128 722 160 722 m 365 722 q 349 722 365 722 q 323 724 333 722 q 300 732 313 725 q 278 799 278 744 q 324 931 278 857 l 399 1049 l 461 1015 l 404 872 q 436 799 436 861 q 414 732 436 744 q 365 722 396 722 z "},"”":{"ha":493,"x_min":32,"x_max":451,"o":"m 128 1019 q 144 1019 128 1019 q 170 1018 160 1019 q 193 1010 181 1017 q 215 943 215 997 q 169 811 215 885 l 94 693 l 32 726 l 89 869 q 57 943 57 881 q 79 1010 57 997 q 128 1019 97 1019 m 365 1019 q 380 1019 365 1019 q 406 1018 396 1019 q 429 1010 417 1017 q 451 943 451 997 q 406 811 451 885 l 331 693 l 268 726 l 325 869 q 293 943 293 881 q 315 1010 293 997 q 365 1019 333 1019 z "},"„":{"ha":493,"x_min":32,"x_max":451,"o":"m 128 138 q 144 138 128 138 q 170 136 160 138 q 193 128 181 135 q 215 61 215 115 q 169 -71 215 3 l 94 -189 l 32 -156 l 89 -12 q 57 61 57 -1 q 79 128 57 115 q 128 138 97 138 m 365 138 q 380 138 365 138 q 406 136 396 138 q 429 128 417 135 q 451 61 451 115 q 406 -71 451 3 l 331 -189 l 268 -156 l 325 -12 q 293 61 293 -1 q 315 128 293 115 q 365 138 333 138 z "},"†":{"ha":694,"x_min":83,"x_max":611,"o":"m 83 625 l 83 722 l 299 722 l 299 972 l 396 972 l 396 722 l 611 722 l 611 625 l 396 625 l 396 0 l 299 0 l 299 625 l 83 625 z "},"‡":{"ha":694,"x_min":83,"x_max":611,"o":"m 83 625 l 83 722 l 299 722 l 299 972 l 396 972 l 396 722 l 611 722 l 611 625 l 396 625 l 396 347 l 611 347 l 611 250 l 396 250 l 396 0 l 299 0 l 299 250 l 83 250 l 83 347 l 299 347 l 299 625 l 83 625 z "},"•":{"ha":381,"x_min":83,"x_max":297,"o":"m 113 509 q 122 514 113 509 q 145 520 131 518 q 191 522 160 522 q 236 520 222 522 q 267 509 250 518 q 291 478 285 500 q 297 418 297 456 q 291 358 297 381 q 267 328 285 336 q 201 314 242 314 q 145 316 160 314 q 113 327 131 318 q 90 358 96 336 q 83 418 83 381 q 90 478 83 456 q 113 509 96 500 z "},"…":{"ha":1000,"x_min":89,"x_max":914,"o":"m 134 136 q 139 137 134 136 q 168 138 144 138 q 202 136 192 138 q 225 128 213 135 q 242 105 238 121 q 247 61 247 89 q 242 17 247 33 q 225 -7 238 0 q 202 -15 213 -14 q 168 -17 192 -17 q 134 -15 144 -17 q 111 -7 124 -14 q 94 17 99 0 q 89 61 89 33 q 94 105 89 89 q 111 128 99 121 q 134 136 124 135 m 467 136 q 473 137 467 136 q 501 138 478 138 q 535 136 525 138 q 558 128 546 135 q 576 105 571 121 q 581 61 581 89 q 576 17 581 33 q 558 -7 571 0 q 535 -15 546 -14 q 501 -17 525 -17 q 467 -15 478 -17 q 444 -7 457 -14 q 427 17 432 0 q 422 61 422 33 q 427 105 422 89 q 444 128 432 121 q 467 136 457 135 m 801 136 q 806 137 801 136 q 835 138 811 138 q 869 136 858 138 q 892 128 879 135 q 909 105 904 121 q 914 61 914 89 q 909 17 914 33 q 892 -7 904 0 q 869 -15 879 -14 q 835 -17 858 -17 q 801 -15 811 -17 q 778 -7 790 -14 q 760 17 765 0 q 756 61 756 33 q 760 105 756 89 q 778 128 765 121 q 801 136 790 135 z "},"‰":{"ha":1425,"x_min":71,"x_max":1353,"o":"m 414 0 l 351 0 l 594 897 l 657 897 l 414 0 m 391 723 q 391 713 391 723 q 392 660 392 703 q 391 597 392 617 q 388 544 390 576 q 379 496 385 511 q 362 460 374 481 q 333 431 350 440 q 238 410 292 410 q 153 422 183 410 q 106 451 122 435 q 81 507 89 468 q 71 631 71 560 q 72 723 71 703 q 75 776 72 743 q 83 824 78 808 q 101 859 89 839 q 129 888 113 879 q 172 903 146 896 q 231 910 197 910 q 290 903 264 910 q 333 888 315 896 q 362 859 350 879 q 379 824 374 839 q 388 776 385 808 q 391 723 390 743 m 306 547 l 306 771 q 274 833 306 824 q 230 838 257 838 q 188 833 203 838 q 167 817 172 828 q 157 771 157 800 l 157 547 q 189 486 157 496 q 233 482 206 482 q 275 487 260 482 q 297 503 290 492 q 306 547 306 519 m 935 305 q 936 295 935 305 q 936 242 936 285 q 935 178 936 199 q 932 126 935 158 q 924 78 929 93 q 906 42 918 63 q 878 14 894 22 q 782 -8 836 -8 q 697 4 728 -8 q 650 33 667 17 q 625 89 633 50 q 615 213 615 142 q 616 305 615 285 q 619 358 617 325 q 628 406 622 390 q 645 441 633 421 q 674 469 657 461 q 716 485 690 478 q 775 492 742 492 q 834 485 808 492 q 877 469 860 478 q 906 441 894 461 q 924 406 918 421 q 932 358 929 390 q 935 305 935 325 m 850 129 l 850 353 q 818 414 850 406 q 774 419 801 419 q 732 415 747 419 q 711 399 717 410 q 701 353 701 382 l 701 129 q 733 69 701 78 q 777 64 750 64 q 819 69 804 64 q 842 85 835 74 q 850 129 850 101 m 1352 305 q 1352 295 1352 305 q 1353 242 1353 285 q 1352 178 1353 199 q 1349 126 1351 158 q 1340 78 1346 93 q 1323 42 1335 63 q 1294 14 1311 22 q 1199 -8 1253 -8 q 1114 4 1144 -8 q 1067 33 1083 17 q 1042 89 1050 50 q 1032 213 1032 142 q 1033 305 1032 285 q 1036 358 1033 325 q 1044 406 1039 390 q 1062 441 1050 421 q 1090 469 1074 461 q 1133 485 1107 478 q 1192 492 1158 492 q 1251 485 1225 492 q 1294 469 1276 478 q 1323 441 1311 461 q 1340 406 1335 421 q 1349 358 1346 390 q 1352 305 1351 325 m 1267 129 l 1267 353 q 1235 414 1267 406 q 1191 419 1218 419 q 1149 415 1164 419 q 1128 399 1133 410 q 1118 353 1118 382 l 1118 129 q 1150 69 1118 78 q 1194 64 1167 64 q 1236 69 1221 64 q 1258 85 1251 74 q 1267 129 1267 101 z "},"‹":{"ha":333,"x_min":42,"x_max":264,"o":"m 264 722 l 160 428 l 264 133 l 165 117 l 42 428 l 165 739 l 264 722 z "},"›":{"ha":333,"x_min":69,"x_max":292,"o":"m 174 428 l 69 722 l 168 739 l 292 428 l 168 117 l 69 133 l 174 428 z "},"⁄":{"ha":431,"x_min":63,"x_max":368,"o":"m 125 0 l 63 0 l 306 897 l 368 897 l 125 0 z "},"₀":{"ha":465,"x_min":69,"x_max":390,"o":"m 390 305 q 390 295 390 305 q 390 242 390 285 q 390 178 390 199 q 386 126 389 158 q 378 78 383 93 q 360 42 372 63 q 331 14 349 22 q 236 -8 290 -8 q 151 4 182 -8 q 104 33 121 17 q 81 89 88 50 q 69 213 69 142 q 70 305 69 285 q 74 358 71 325 q 82 406 76 390 q 99 441 88 421 q 128 469 111 461 q 170 485 144 478 q 229 492 196 492 q 288 485 263 492 q 331 469 314 478 q 360 441 349 461 q 378 406 372 421 q 386 358 383 390 q 390 305 389 325 m 304 129 l 304 353 q 272 414 304 406 q 228 419 256 419 q 186 415 201 419 q 164 399 171 410 q 156 353 156 382 l 156 129 q 188 69 156 78 q 231 64 204 64 q 274 69 258 64 q 294 85 289 74 q 304 129 304 101 z "},"₁":{"ha":465,"x_min":92,"x_max":297,"o":"m 297 492 l 297 0 l 210 0 l 210 392 l 118 357 l 92 425 l 269 492 l 297 492 z "},"₂":{"ha":465,"x_min":78,"x_max":379,"o":"m 230 492 q 264 492 230 492 q 338 458 297 492 q 379 356 379 424 q 315 217 379 289 l 183 71 l 379 71 l 379 0 l 78 0 l 78 68 l 250 261 q 292 350 292 307 q 276 406 292 393 q 217 419 260 419 q 101 397 174 419 l 82 457 q 230 492 163 492 z "},"₃":{"ha":465,"x_min":75,"x_max":379,"o":"m 213 492 q 364 360 364 492 q 314 251 364 290 q 379 140 379 221 q 213 -7 379 -7 q 78 21 144 -7 l 97 81 q 210 67 179 67 q 258 73 240 67 q 282 92 275 79 q 292 135 292 111 q 290 170 292 158 q 276 194 288 182 q 240 207 264 206 l 139 214 l 139 272 l 229 278 q 276 350 276 281 q 210 419 276 419 q 94 397 168 419 l 75 457 q 213 492 153 492 z "},"₄":{"ha":465,"x_min":56,"x_max":403,"o":"m 349 336 l 349 185 l 403 185 l 403 113 l 349 113 l 349 0 l 268 0 l 268 113 l 56 113 l 56 172 l 164 485 l 249 485 l 144 185 l 268 185 l 268 267 l 290 336 l 349 336 z "},"₅":{"ha":465,"x_min":74,"x_max":381,"o":"m 244 279 q 353 236 325 271 q 381 138 381 201 q 348 34 381 75 q 218 -7 315 -7 q 74 21 153 -7 l 93 81 q 209 67 165 67 q 271 79 253 67 q 291 103 289 92 q 293 136 293 115 q 291 168 293 157 q 277 192 289 179 q 240 207 265 204 l 121 219 l 97 249 l 97 485 l 356 485 l 356 414 l 178 414 l 178 286 l 244 279 z "},"₆":{"ha":465,"x_min":72,"x_max":385,"o":"m 351 404 q 222 419 285 419 q 160 367 160 419 l 160 286 q 236 296 189 296 q 356 258 328 296 q 385 149 385 221 q 354 34 385 76 q 232 -8 324 -8 q 119 24 149 -8 q 92 60 101 43 q 78 117 82 76 q 72 286 72 172 q 106 446 72 400 q 232 492 139 492 q 371 464 285 492 l 351 404 m 299 104 l 299 181 q 232 225 299 225 q 160 218 192 225 l 160 104 q 232 64 160 64 q 278 72 263 64 q 297 88 294 81 q 299 104 299 94 z "},"₇":{"ha":465,"x_min":83,"x_max":360,"o":"m 83 414 l 83 485 l 360 485 l 360 435 q 352 312 360 360 q 315 210 344 264 l 204 0 l 115 0 l 235 226 q 279 414 276 306 l 83 414 z "},"₈":{"ha":465,"x_min":71,"x_max":386,"o":"m 232 -8 q 106 28 140 -8 q 71 137 71 64 q 107 235 71 210 q 71 342 71 265 q 103 455 71 418 q 232 492 136 492 q 386 369 386 492 q 354 243 386 275 q 386 128 386 214 q 318 3 386 28 q 232 -8 285 -8 m 158 383 l 158 313 q 203 282 158 290 l 300 264 l 300 383 q 229 419 300 419 q 158 383 158 419 m 300 99 l 300 167 q 257 199 300 192 l 158 215 l 158 99 q 229 64 158 64 q 300 99 300 64 z "},"₉":{"ha":465,"x_min":79,"x_max":392,"o":"m 107 79 q 237 65 169 65 q 304 113 304 65 l 304 190 q 235 181 278 181 q 108 217 138 181 q 79 330 79 253 q 110 449 79 407 q 236 492 142 492 q 342 464 311 492 q 383 390 376 432 q 390 319 389 347 q 392 243 392 292 q 391 168 392 194 q 385 108 390 142 q 371 57 381 74 q 344 22 361 40 q 234 -8 314 -8 q 88 19 154 -8 l 107 79 m 165 372 l 165 293 q 235 250 165 250 q 304 258 260 250 l 304 372 q 272 414 304 406 q 230 419 254 419 q 192 415 206 419 q 172 401 178 410 q 165 372 165 389 z "},"€":{"ha":694,"x_min":74,"x_max":644,"o":"m 74 515 l 74 599 l 163 599 q 226 838 169 763 q 443 914 282 914 q 644 869 542 914 l 619 786 q 465 815 536 815 q 364 806 394 815 q 317 786 333 797 q 294 751 301 775 q 283 667 283 719 l 283 599 l 540 599 l 540 515 l 283 515 l 283 390 l 540 390 l 540 307 l 283 307 l 283 231 q 317 111 283 135 q 448 82 360 82 q 619 111 536 82 l 644 28 q 450 -17 542 -17 q 303 4 358 -17 q 218 70 247 25 q 177 169 189 115 q 163 307 165 224 l 74 307 l 74 390 l 161 390 l 161 515 l 74 515 z "},"™":{"ha":961,"x_min":57,"x_max":850,"o":"m 57 900 l 57 972 l 361 972 l 361 900 l 251 900 l 251 429 l 167 429 l 167 900 l 57 900 m 665 557 l 599 557 l 501 800 l 493 429 l 414 429 l 432 972 l 514 972 l 632 656 l 750 972 l 832 972 l 850 429 l 771 429 l 763 800 l 665 557 z "},"Ω":{"ha":922,"x_min":104,"x_max":818,"o":"m 640 785 q 629 791 640 785 q 573 806 618 797 q 462 815 528 815 q 351 806 396 815 q 283 785 306 797 q 248 749 260 774 q 235 709 236 725 q 233 661 233 693 l 233 415 q 264 306 233 332 q 376 267 301 274 l 376 0 l 104 0 l 104 97 l 279 97 l 279 199 q 172 254 218 215 q 125 347 146 276 q 111 506 111 389 q 113 657 111 622 q 124 744 115 692 q 155 819 133 796 q 215 868 176 842 q 314 904 253 894 q 461 914 375 914 q 608 904 547 914 q 708 868 669 894 q 767 819 746 842 q 797 744 789 796 q 811 582 811 668 q 810 472 811 496 q 807 407 810 447 q 798 347 804 367 q 780 298 792 326 q 750 254 768 269 q 643 199 704 215 l 643 97 l 818 97 l 818 0 l 546 0 l 546 267 q 681 339 658 278 q 689 415 689 365 l 689 661 q 688 709 689 693 q 674 749 686 725 q 640 785 663 774 z "},"∂":{"ha":713,"x_min":94,"x_max":651,"o":"m 307 -17 q 140 27 186 -17 q 94 161 94 71 q 113 344 94 239 q 142 495 131 450 q 165 562 153 540 q 198 611 176 583 q 247 651 219 639 q 402 682 315 682 q 538 660 489 682 q 543 735 543 694 q 381 975 543 910 l 428 1057 q 592 942 533 1014 q 651 731 651 869 q 643 628 651 683 l 601 333 q 569 156 579 185 q 547 99 560 128 q 521 58 535 71 q 486 27 507 44 q 439 3 465 10 q 307 -17 376 -17 m 510 515 q 485 572 510 553 q 402 592 460 592 q 315 583 344 592 q 271 554 285 575 q 242 464 249 521 l 200 150 q 225 93 200 113 q 308 74 250 74 q 396 82 367 74 q 440 112 425 90 q 459 150 454 133 q 487 334 464 167 q 510 515 510 501 z "},"∆":{"ha":761,"x_min":49,"x_max":713,"o":"m 713 0 l 49 0 l 293 897 l 468 897 l 713 0 m 381 808 l 189 97 l 571 97 l 381 808 z "},"∏":{"ha":822,"x_min":56,"x_max":767,"o":"m 56 800 l 56 897 l 767 897 l 767 800 l 683 800 l 683 -253 l 569 -253 l 569 800 l 253 800 l 253 -253 l 139 -253 l 139 800 l 56 800 z "},"∑":{"ha":822,"x_min":97,"x_max":725,"o":"m 97 897 l 725 897 l 725 800 l 231 800 l 585 344 l 585 301 l 231 -156 l 725 -156 l 725 -253 l 97 -253 l 97 -156 l 461 322 l 97 800 l 97 897 z "},"−":{"ha":694,"x_min":83,"x_max":611,"o":"m 83 392 l 83 489 l 611 489 l 611 392 l 83 392 z "},"√":{"ha":671,"x_min":96,"x_max":865,"o":"m 424 0 l 235 0 l 96 543 l 208 543 l 325 89 l 333 89 l 540 1057 l 865 1057 l 851 960 l 632 960 l 424 0 z "},"∞":{"ha":989,"x_min":42,"x_max":947,"o":"m 56 331 q 49 356 56 331 q 42 451 42 381 q 56 572 42 522 q 92 650 71 622 q 147 693 113 678 q 280 717 201 717 q 401 688 358 717 q 492 571 443 658 q 576 689 531 661 q 683 717 621 717 q 776 713 744 717 q 842 693 807 708 q 897 650 876 678 q 933 572 918 622 q 947 451 947 522 q 933 331 947 381 q 897 253 918 281 q 842 210 876 225 q 704 186 788 186 q 576 214 621 186 q 492 332 531 242 q 401 215 443 244 q 301 186 358 186 q 213 190 244 186 q 147 210 182 194 q 92 253 113 225 q 56 331 71 281 m 299 617 l 247 617 q 150 451 150 617 q 247 286 150 286 l 299 286 q 356 300 335 286 q 397 357 378 314 l 440 451 l 397 546 q 356 603 378 589 q 299 617 335 617 m 690 286 l 742 286 q 839 451 839 286 q 742 617 839 617 l 690 617 q 635 603 656 617 q 592 546 614 589 l 546 451 l 592 357 q 635 300 614 314 q 690 286 656 286 z "},"∫":{"ha":519,"x_min":0,"x_max":519,"o":"m 286 676 q 315 322 286 626 q 344 -36 344 17 q 281 -207 344 -144 q 92 -269 217 -269 q 0 -251 57 -269 l 25 -167 q 94 -174 67 -174 q 198 -144 163 -174 q 233 -32 233 -115 q 204 323 233 18 q 175 681 175 628 q 239 851 175 789 q 428 914 303 914 q 519 896 463 914 l 494 811 q 425 818 453 818 q 322 789 357 818 q 286 676 286 760 z "},"≈":{"ha":694,"x_min":83,"x_max":611,"o":"m 83 628 q 190 585 132 585 q 338 626 247 585 q 492 667 429 667 q 611 628 554 667 l 611 531 q 494 569 556 569 q 346 528 433 569 q 196 486 258 486 q 83 531 133 486 l 83 628 m 83 350 q 192 307 132 307 q 340 350 253 307 q 489 393 426 393 q 611 350 551 393 l 611 253 q 495 294 557 294 q 347 251 433 294 q 194 208 260 208 q 83 253 129 208 l 83 350 z "},"≠":{"ha":694,"x_min":83,"x_max":611,"o":"m 83 531 l 83 628 l 365 628 l 438 906 l 500 906 l 428 628 l 611 628 l 611 531 l 401 531 l 354 350 l 611 350 l 611 253 l 329 253 l 257 -25 l 194 -25 l 267 253 l 83 253 l 83 350 l 292 350 l 339 531 l 83 531 z "},"≤":{"ha":694,"x_min":83,"x_max":611,"o":"m 83 392 l 83 489 l 611 711 l 611 614 l 190 440 l 611 267 l 611 169 l 83 392 m 83 0 l 83 97 l 611 97 l 611 0 l 83 0 z "},"≥":{"ha":694,"x_min":83,"x_max":611,"o":"m 611 489 l 611 392 l 83 169 l 83 267 l 503 440 l 83 614 l 83 711 l 611 489 m 83 0 l 83 97 l 611 97 l 611 0 l 83 0 z "},"◊":{"ha":761,"x_min":49,"x_max":713,"o":"m 49 322 l 293 897 l 468 897 l 713 322 l 468 -253 l 293 -253 l 49 322 m 597 322 l 381 840 l 164 322 l 381 -196 l 597 322 z "},"":{"ha":1338,"x_min":167,"x_max":1171,"o":"m 846 -124 l 814 -122 q 770 -139 794 -122 q 733 -156 746 -156 l 669 -142 q 637 -150 658 -142 q 603 -158 615 -158 q 569 -141 592 -158 q 529 -124 547 -124 l 496 -126 q 450 -103 475 -126 l 425 -76 q 390 -67 408 -68 q 360 -58 372 -65 q 338 -26 347 -50 q 320 5 328 -1 q 293 19 313 11 q 265 39 274 26 q 256 72 258 51 q 247 101 253 92 q 228 119 242 110 q 197 172 197 144 l 201 207 q 184 244 201 219 q 167 281 167 268 q 175 313 167 293 q 183 345 183 333 q 175 375 183 357 q 167 406 167 393 q 184 447 167 418 q 201 488 201 475 l 200 522 q 223 563 200 543 q 249 590 246 583 q 256 619 253 597 q 264 650 258 642 q 291 667 269 658 q 319 682 313 675 q 336 710 326 689 q 355 740 346 732 q 390 753 364 747 q 424 763 417 758 q 453 790 432 767 q 493 815 474 814 l 529 813 q 569 828 547 813 q 606 844 590 844 l 667 828 l 729 844 q 769 827 747 844 q 808 810 792 810 l 847 814 q 888 791 869 814 q 915 763 906 768 q 944 754 924 758 q 976 743 965 750 q 993 717 986 736 q 1008 690 1000 697 q 1043 669 1015 683 q 1077 643 1071 654 q 1084 610 1083 632 q 1088 581 1085 588 q 1115 555 1092 575 q 1139 513 1139 535 l 1138 478 q 1154 434 1138 460 q 1171 396 1171 408 q 1163 365 1171 383 q 1156 338 1156 347 q 1163 308 1156 328 q 1170 276 1171 288 q 1153 248 1169 265 q 1136 211 1136 231 l 1139 167 q 1117 126 1139 144 q 1091 101 1094 108 q 1081 68 1088 94 q 1067 33 1075 42 q 1042 16 1060 24 q 1018 1 1025 8 q 999 -28 1011 -6 q 976 -58 986 -51 q 942 -72 967 -65 q 911 -82 918 -78 q 885 -105 904 -86 q 846 -124 867 -124 m 669 -8 l 715 -18 q 739 -8 724 -18 q 776 6 760 6 l 797 4 q 826 18 814 4 q 844 35 839 32 q 867 42 849 38 q 892 53 885 47 q 909 74 900 58 q 923 95 918 90 q 940 106 928 100 q 958 117 953 111 q 968 143 964 124 q 976 168 972 163 q 994 186 979 174 q 1010 218 1010 199 l 1008 246 q 1020 274 1008 261 q 1033 296 1032 288 l 1022 340 l 1033 379 q 1021 410 1033 390 q 1008 442 1008 429 l 1010 465 q 993 496 1010 482 q 974 515 976 510 q 970 537 971 521 q 965 560 969 553 q 941 578 961 568 q 915 594 921 589 q 904 614 910 600 q 892 633 899 628 q 869 642 885 639 q 847 648 854 644 q 828 668 840 651 q 799 685 815 685 l 771 682 q 743 694 758 682 q 714 707 728 707 l 668 694 l 624 707 q 596 695 613 707 q 565 683 579 683 l 542 685 q 512 667 526 685 q 491 647 497 650 q 467 640 485 643 q 442 631 449 636 q 428 610 435 625 q 415 589 421 594 q 395 578 410 583 q 375 565 381 572 q 369 544 372 560 q 364 522 367 528 q 344 502 361 517 q 328 472 328 488 l 329 450 q 317 418 329 439 q 306 386 306 397 l 317 344 l 306 299 q 317 270 306 288 q 329 242 329 253 l 326 219 q 344 188 326 204 q 364 167 361 172 q 369 147 367 161 q 376 123 371 132 q 396 108 382 114 q 415 98 410 103 q 428 75 421 93 q 444 51 436 57 q 466 46 453 46 q 488 42 479 46 q 512 20 496 38 q 543 3 528 3 l 564 4 q 594 -8 578 4 q 619 -21 611 -19 l 669 -8 m 503 510 q 538 545 503 510 q 669 579 572 579 q 836 510 767 579 q 906 343 906 442 q 836 176 906 244 q 669 107 767 107 q 503 176 572 107 q 433 343 433 244 q 503 510 433 442 m 729 406 l 801 406 l 801 500 l 536 500 l 536 406 l 611 406 l 611 163 l 729 163 l 729 406 z "},"ﬁ":{"ha":810,"x_min":69,"x_max":700,"o":"m 393 933 q 306 898 332 933 q 279 769 279 863 l 279 722 l 410 722 l 410 640 l 279 640 l 279 0 l 165 0 l 165 640 l 69 640 l 69 701 l 165 721 q 219 961 169 907 q 356 1013 265 1013 q 457 1001 394 1013 l 449 929 q 393 933 417 933 m 571 722 l 685 722 l 685 0 l 571 0 l 571 722 m 597 994 q 602 995 597 994 q 628 996 607 996 q 658 994 649 996 q 681 986 668 993 q 700 938 700 976 q 696 885 700 900 q 680 865 692 871 q 658 857 668 858 q 628 856 649 856 q 597 857 607 856 q 575 864 588 858 q 556 913 556 875 q 560 966 556 951 q 576 987 564 981 q 597 994 588 993 z "},"ﬂ":{"ha":810,"x_min":69,"x_max":685,"o":"m 393 933 q 306 898 332 933 q 279 769 279 863 l 279 722 l 410 722 l 410 640 l 279 640 l 279 0 l 165 0 l 165 640 l 69 640 l 69 701 l 165 721 q 219 961 169 907 q 356 1013 265 1013 q 457 1001 394 1013 l 449 929 q 393 933 417 933 m 685 0 l 571 0 l 571 1000 l 685 1000 l 685 0 z "}}}
